<?xml version="1.0" standalone="no"?>
<!DOCTYPE svg PUBLIC "-//W3C//DTD SVG 20010904//EN"
 "http://www.w3.org/TR/2001/REC-SVG-20010904/DTD/svg10.dtd">
<svg version="1.0" xmlns="http://www.w3.org/2000/svg"
 width="200.000000pt" height="200.000000pt" viewBox="0 0 200.000000 200.000000"
 preserveAspectRatio="xMidYMid meet">
<metadata>
Created by potrace 1.10, written by Peter Selinger 2001-2011
</metadata>
<g transform="translate(0.000000,200.000000) scale(0.100000,-0.100000)"
fill="#000000" stroke="none">
<path d="M729 1973 c-5 -13 -9 -37 -9 -52 0 -16 -6 -34 -14 -40 -14 -12 -19
-61 -7 -61 4 0 18 21 31 47 13 26 43 66 66 90 l43 43 -50 -2 c-44 0 -52 -4
-60 -25z"/>
<path d="M1550 1985 c-11 -13 -8 -21 18 -48 18 -19 41 -60 53 -95 11 -34 25
-62 31 -62 6 0 8 6 5 13 -21 52 -22 53 -4 38 15 -12 17 -11 17 7 0 37 -12 82
-21 76 -5 -3 -10 2 -10 10 -1 9 -3 21 -4 26 -1 6 -3 15 -4 20 0 6 -8 10 -17
10 -8 0 -12 5 -9 10 10 16 -41 11 -55 -5z"/>
<path d="M1690 1951 c0 -11 5 -23 10 -26 6 -3 10 3 10 14 0 11 -4 23 -10 26
-5 3 -10 -3 -10 -14z"/>
<path d="M1275 1571 c-27 -4 -63 -7 -80 -7 -16 1 -36 -4 -43 -11 -7 -7 -22
-13 -33 -13 -11 0 -46 -11 -79 -25 -67 -28 -167 -38 -202 -19 -13 7 -23 16
-23 21 0 4 -5 7 -12 5 -7 -2 -13 2 -13 8 0 5 -5 10 -11 10 -6 0 -9 -7 -5 -15
5 -13 2 -13 -20 1 -23 16 -25 15 -43 -5 -13 -15 -30 -21 -57 -21 -39 0 -163
-28 -216 -49 -21 -8 -28 -17 -28 -38 0 -16 7 -37 15 -47 8 -11 15 -32 15 -48
0 -48 39 -136 71 -159 42 -30 165 -38 241 -15 66 19 91 47 109 122 22 92 69
143 105 113 9 -7 29 -41 45 -75 38 -80 75 -119 125 -133 50 -14 188 -14 256 0
61 13 133 51 148 79 16 29 11 37 -8 14 -51 -62 -137 -89 -277 -88 -92 1 -166
16 -152 31 6 5 -32 82 -53 108 -4 6 -13 30 -20 54 -6 23 -14 41 -17 38 -8 -9
26 -103 51 -139 37 -56 41 -64 17 -44 -30 27 -84 143 -83 180 2 62 47 103 124
112 24 3 45 9 46 15 2 5 8 9 13 9 4 0 6 -7 3 -15 -6 -14 14 -21 41 -15 11 2
40 6 65 9 13 1 13 3 1 10 -8 5 -23 8 -33 6 -10 -2 -18 0 -18 5 0 13 103 23
181 18 82 -6 114 -25 135 -78 16 -40 16 -40 33 -18 22 27 54 20 113 -25 60
-46 93 -56 47 -15 -58 53 -82 69 -111 75 -20 4 -28 13 -33 39 -5 29 -10 34
-33 34 -15 0 -76 2 -137 5 -60 2 -132 0 -160 -4z m324 -68 c1 -7 -3 -13 -9
-13 -5 0 -10 15 -9 33 0 27 2 29 9 12 5 -11 9 -26 9 -32z m-811 -23 c92 -22
105 -113 35 -252 -27 -55 -37 -62 -121 -78 -51 -10 -75 -10 -120 0 -31 7 -63
17 -70 23 -23 18 -42 63 -56 134 -17 81 -5 123 40 141 55 21 100 32 124 32 14
-1 43 3 65 8 22 5 47 7 55 5 8 -3 30 -9 48 -13z m183 -24 c5 3 9 0 9 -6 0 -7
-7 -10 -15 -6 -8 3 -15 1 -15 -5 0 -6 -7 -9 -15 -5 -8 3 -16 1 -16 -4 -1 -6
-2 -14 -3 -19 -2 -20 -14 -21 -19 -1 -3 11 -1 18 4 14 5 -3 9 2 9 10 0 10 -6
13 -17 10 -14 -5 -15 -4 -4 4 8 6 22 9 32 7 10 -2 22 1 26 8 5 8 8 8 11 -1 2
-7 8 -10 13 -6z"/>
<path d="M642 1463 c-11 -10 -23 -31 -27 -48 -6 -28 -5 -29 8 -10 9 11 13 23
11 26 -2 4 5 5 16 2 15 -4 19 -1 15 9 -4 10 3 13 35 10 22 -2 53 -1 68 3 l27
8 -25 7 c-47 15 -107 11 -128 -7z"/>
<path d="M464 1395 c-4 -14 -5 -27 -3 -29 10 -7 154 -54 157 -51 12 11 -13 44
-46 59 -98 48 -101 49 -108 21z m36 -10 c0 -8 -4 -15 -10 -15 -5 0 -10 7 -10
15 0 8 5 15 10 15 6 0 10 -7 10 -15z"/>
<path d="M839 1408 c-8 -27 -6 -45 5 -45 8 0 11 9 8 24 -4 19 -10 30 -13 21z"/>
<path d="M701 1382 c-52 -20 -74 -47 -51 -62 8 -6 23 -8 33 -6 9 2 17 0 17 -4
0 -4 9 -6 20 -3 11 3 26 0 34 -6 11 -9 12 -6 8 14 -2 14 -9 25 -14 25 -5 0 -2
7 7 16 13 14 14 19 3 25 -10 7 -9 9 5 9 9 0 17 -6 17 -14 0 -8 7 -16 15 -20
23 -8 18 -26 -7 -27 -19 -1 -18 -2 7 -10 19 -5 31 -5 33 1 2 6 8 8 13 4 5 -3
9 -1 9 5 0 6 -13 17 -30 26 -31 16 -41 29 -15 19 9 -4 15 -1 15 7 0 21 -67 21
-119 1z"/>
<path d="M785 1280 c-4 -19 -10 -30 -12 -23 -3 8 -13 9 -35 2 -44 -12 -43 -15
6 -14 35 0 50 6 72 29 23 23 25 27 7 18 -18 -10 -22 -9 -25 6 -3 11 -7 4 -13
-18z"/>
<path d="M1201 1434 c-27 -11 -32 -17 -22 -27 9 -9 16 -9 30 0 16 10 17 8 13
-14 -3 -18 -7 -21 -13 -11 -7 10 -12 11 -29 1 -11 -7 -23 -13 -26 -13 -4 0 -2
6 4 13 6 8 4 17 -8 29 -16 17 -17 17 -18 0 -1 -35 18 -59 46 -56 15 2 53 4 85
6 55 3 58 4 54 25 -5 27 7 29 31 6 18 -19 75 -26 69 -9 -2 5 -30 17 -63 26
-33 10 -71 23 -83 30 -15 8 -21 8 -17 1 4 -6 0 -11 -9 -11 -9 0 -13 5 -10 10
8 12 7 12 -34 -6z"/>
<path d="M1724 1379 c-9 -14 -3 -18 42 -25 42 -6 38 4 -8 24 -19 8 -29 8 -34
1z"/>
<path d="M1563 1368 c-1 -7 -4 -29 -7 -48 -5 -24 -4 -29 2 -15 15 35 23 75 14
75 -5 0 -9 -6 -9 -12z"/>
<path d="M1820 1330 c0 -5 6 -10 14 -10 8 0 18 5 21 10 3 6 -3 10 -14 10 -12
0 -21 -4 -21 -10z"/>
<path d="M1156 1306 c21 -15 30 -14 19 3 -3 6 -14 11 -23 11 -13 0 -13 -2 4
-14z"/>
<path d="M1018 1053 c-24 -6 -23 -20 3 -28 22 -7 69 11 69 27 0 8 -42 9 -72 1z"/>
<path d="M830 1011 c0 -10 30 -24 37 -17 3 2 -5 9 -16 16 -12 6 -21 7 -21 1z"/>
<path d="M808 988 c17 -17 15 -33 -2 -19 -10 8 -16 9 -21 1 -3 -6 -12 -7 -18
-3 -7 4 -6 0 2 -10 7 -9 20 -17 27 -17 8 0 14 -8 14 -17 0 -13 -2 -15 -8 -5
-7 10 -12 8 -26 -7 -9 -10 -28 -19 -41 -20 -61 -4 -62 -5 -57 -29 l5 -25 12
23 12 22 6 -21 c3 -11 1 -19 -3 -16 -14 9 -30 -51 -17 -65 9 -10 9 -11 -2 -5
-11 6 -11 3 2 -14 8 -13 13 -30 10 -39 -5 -11 -2 -14 10 -9 15 6 16 3 7 -13
-10 -19 -8 -83 6 -147 5 -26 12 -33 29 -33 26 0 52 -25 35 -35 -5 -3 -10 0
-10 8 0 14 -33 17 -38 4 -4 -13 27 -77 37 -77 6 0 11 5 11 11 0 5 -4 7 -10 4
-5 -3 -10 1 -10 9 0 19 17 30 25 16 10 -16 25 -12 25 8 0 15 -2 15 -11 2 -8
-12 -9 -9 -5 12 4 17 1 32 -9 42 -22 21 -19 26 16 26 25 0 29 -3 21 -13 -9
-10 -2 -13 31 -14 41 -1 41 -1 14 11 -15 7 -25 15 -21 18 3 4 1 15 -5 25 -6
10 -11 12 -11 6 0 -10 -6 -10 -26 -1 -28 13 -44 1 -44 -35 0 -15 -2 -16 -14
-5 -11 10 -11 16 -2 27 9 12 8 13 -7 8 -12 -5 -16 -3 -11 5 4 6 8 27 10 46 2
20 9 39 16 44 10 6 10 8 -1 8 -12 0 -12 3 -3 12 16 16 15 28 -3 28 -8 0 -15 5
-15 10 0 6 6 10 14 10 8 0 16 5 18 11 2 6 19 13 37 15 18 2 36 6 41 9 5 3 11
1 15 -5 4 -6 10 -8 15 -5 19 12 193 15 272 5 68 -8 87 -15 106 -35 13 -14 27
-23 32 -20 6 3 7 -1 4 -9 -3 -9 -10 -13 -15 -10 -5 3 -9 -3 -10 -13 0 -10 -2
-28 -5 -40 -2 -13 -1 -23 2 -23 10 0 54 54 54 65 0 6 -5 3 -11 -5 -7 -11 -8
-5 -3 23 4 24 2 37 -5 37 -6 0 -11 5 -11 11 0 5 5 7 10 4 6 -3 10 -1 10 5 0 7
-6 10 -14 7 -7 -3 -18 -1 -23 4 -11 11 -129 19 -359 22 l-160 3 4 -25 c2 -19
1 -22 -6 -12 -5 7 -15 10 -21 7 -16 -11 -25 22 -11 39 10 12 10 15 0 15 -8 0
-10 3 -7 6 4 4 14 1 23 -7 16 -13 16 -12 7 6 -6 11 -8 26 -6 33 3 6 0 12 -7
12 -6 0 -9 4 -6 9 3 5 15 7 27 4 12 -4 25 0 30 8 7 12 9 12 9 0 0 -11 3 -11
16 0 13 10 17 10 24 -1 4 -7 6 -19 3 -27 -3 -7 2 -16 11 -19 14 -5 14 -9 4
-23 -12 -14 -11 -14 4 -2 10 7 25 11 33 7 8 -3 15 -1 15 4 0 6 -9 10 -20 10
-17 0 -19 4 -14 28 4 15 11 32 17 37 7 7 8 4 3 -9 -5 -16 -4 -17 9 -6 8 7 15
16 15 20 0 10 -43 7 -51 -4 -4 -5 -12 -5 -18 -2 -12 8 -15 27 -3 24 4 -2 7 2
7 7 0 6 -3 9 -6 8 -4 -1 -5 7 -2 18 4 12 0 25 -8 30 -21 13 -35 11 -21 -3z"/>
<path d="M917 944 c-3 -3 -2 -16 2 -28 10 -30 8 -45 -8 -55 -10 -7 -11 -13 -2
-27 6 -11 11 -14 12 -6 1 6 2 17 3 22 0 6 4 9 7 8 3 -2 13 3 22 11 22 18 22
-2 1 -24 -9 -9 -13 -19 -9 -23 3 -4 11 1 16 10 5 10 16 15 24 12 9 -4 19 7 29
31 9 21 16 39 16 40 0 2 -13 5 -30 7 -21 3 -30 0 -33 -11 -4 -13 -5 -13 -6 2
-1 10 -9 17 -22 17 -11 0 -17 5 -14 10 7 11 2 14 -8 4z m33 -46 c0 -19 -2 -20
-10 -8 -13 19 -13 30 0 30 6 0 10 -10 10 -22z"/>
<path d="M980 940 c15 -10 58 -14 48 -5 -3 3 -18 8 -34 11 -22 3 -25 2 -14 -6z"/>
<path d="M716 925 c4 -8 1 -15 -7 -15 -7 0 -10 -3 -7 -6 10 -9 49 16 43 27
-10 15 -35 10 -29 -6z"/>
<path d="M805 876 c-6 -13 -4 -21 3 -24 7 -2 10 -8 7 -12 -3 -5 -1 -11 5 -15
11 -7 12 8 0 45 -7 23 -8 24 -15 6z"/>
<path d="M1034 879 c-3 -6 -1 -15 6 -19 7 -4 10 -13 6 -19 -4 -7 -1 -9 8 -5
12 4 13 11 6 24 -5 9 -6 20 -3 24 3 3 1 6 -5 6 -6 0 -14 -5 -18 -11z"/>
<path d="M1180 873 c1 -18 18 -35 24 -24 4 6 2 11 -4 11 -6 0 -8 5 -5 10 3 6
1 10 -4 10 -6 0 -11 -3 -11 -7z"/>
<path d="M751 856 c-17 -20 13 -43 34 -26 9 7 13 15 10 18 -2 3 -12 -1 -21 -9
-15 -12 -16 -11 -10 9 8 25 4 28 -13 8z"/>
<path d="M1282 828 c2 -7 -4 -12 -12 -10 -8 2 -12 0 -7 -4 4 -4 18 -9 30 -10
12 -2 16 0 9 2 -6 3 -10 10 -7 14 3 5 1 12 -5 15 -6 4 -9 1 -8 -7z"/>
<path d="M855 700 c-4 -6 -10 -8 -15 -5 -5 3 -12 1 -15 -5 -4 -7 5 -10 24 -8
17 1 33 8 35 15 6 15 -20 18 -29 3z"/>
<path d="M921 702 c1 -4 1 -16 0 -27 -2 -19 -2 -19 -15 -2 -9 12 -16 14 -21 7
-3 -5 -9 -8 -13 -6 -4 2 -13 -2 -20 -10 -10 -11 -9 -14 10 -14 65 -1 66 -1 61
-21 -3 -10 -10 -16 -15 -13 -13 8 -51 -33 -43 -46 3 -6 11 -10 16 -10 6 0 7 5
4 10 -3 6 1 10 9 10 9 0 16 -4 16 -10 0 -5 5 -10 10 -10 6 0 10 7 10 16 0 13
8 15 35 12 19 -2 35 -1 35 4 0 4 6 5 14 2 7 -3 16 2 20 12 4 12 2 15 -9 10
-10 -3 -15 1 -15 14 0 10 -9 21 -19 25 -11 3 -22 14 -25 23 -3 9 -3 -5 -1 -33
2 -27 2 -45 -1 -38 -3 7 -11 10 -18 7 -8 -3 -12 7 -12 30 0 19 3 33 6 31 4 -2
7 2 7 10 0 8 -6 16 -14 19 -7 3 -12 2 -12 -2z m79 -78 c0 -20 -7 -17 -20 6 -9
16 -8 18 5 14 8 -4 15 -12 15 -20z"/>
<path d="M1000 686 c0 -8 5 -18 10 -21 6 -3 10 3 10 14 0 12 -4 21 -10 21 -5
0 -10 -6 -10 -14z"/>
<path d="M784 630 c1 -36 22 -40 28 -6 4 18 1 23 -10 18 -10 -3 -13 -1 -8 6 4
7 3 12 -2 12 -5 0 -9 -13 -8 -30z"/>
<path d="M820 425 c-7 -9 -10 -18 -6 -22 3 -3 6 -1 6 6 0 8 7 11 15 7 8 -3 15
-1 15 4 0 17 -18 20 -30 5z"/>
<path d="M862 418 c-14 -14 -16 -28 -3 -28 9 0 24 30 18 36 -2 2 -9 -2 -15 -8z"/>
<path d="M900 405 c0 -8 6 -15 14 -15 17 0 30 -47 18 -63 -5 -7 -5 -23 -1 -37
7 -23 7 -23 8 8 1 17 5 32 10 32 5 0 11 11 13 25 4 20 -1 27 -23 37 -15 7 -25
16 -23 20 3 4 0 8 -5 8 -6 0 -11 -7 -11 -15z"/>
<path d="M766 378 c7 -37 58 -177 81 -222 10 -19 18 -25 25 -18 6 6 7 16 2 24
-5 7 -10 19 -11 26 -2 6 -4 18 -6 25 -1 6 -5 17 -9 22 -3 6 -5 27 -4 47 1 20
-1 35 -3 32 -2 -2 -16 13 -30 34 -42 62 -52 69 -45 30z"/>
<path d="M890 368 c0 -7 3 -23 6 -35 7 -24 24 -22 24 3 0 9 -5 12 -12 8 -8 -5
-9 -2 -5 9 3 9 2 19 -3 22 -6 4 -10 0 -10 -7z"/>
<path d="M1655 343 c-12 -48 -25 -136 -31 -208 -4 -38 -10 -72 -14 -75 -4 -3
-10 -15 -14 -26 -10 -31 22 -41 33 -11 5 12 15 36 21 52 7 17 14 71 15 120 0
50 4 96 8 102 4 6 3 14 -3 18 -5 3 -7 17 -4 31 3 13 4 24 1 24 -3 0 -8 -12
-12 -27z"/>
<path d="M1008 313 c-10 -2 -18 -11 -18 -19 0 -11 4 -10 20 3 17 15 26 26 18
22 -2 -1 -11 -3 -20 -6z"/>
<path d="M1103 291 c1 -11 8 -21 15 -21 12 0 12 3 1 18 -7 9 -14 19 -16 21 -1
2 -1 -6 0 -18z"/>
</g>
</svg>
