<?xml version="1.0" standalone="no"?>
<!DOCTYPE svg PUBLIC "-//W3C//DTD SVG 20010904//EN"
 "http://www.w3.org/TR/2001/REC-SVG-20010904/DTD/svg10.dtd">
<svg version="1.0" xmlns="http://www.w3.org/2000/svg"
 width="600.000000pt" height="600.000000pt" viewBox="0 0 600.000000 600.000000"
 preserveAspectRatio="xMidYMid meet">
<metadata>
Created by potrace 1.11, written by Peter Selinger 2001-2013
</metadata>
<g transform="translate(0.000000,600.000000) scale(0.100000,-0.100000)"
fill="#000000" stroke="none">
<path d="M2230 5987 c0 -8 -10 -18 -21 -23 -15 -7 -23 -20 -24 -45 -2 -18 -1
-26 2 -16 2 9 8 15 13 12 15 -9 -1 -44 -18 -40 -13 2 -17 -5 -18 -26 -1 -18 3
-26 10 -23 6 3 0 -4 -14 -15 -18 -15 -21 -21 -9 -21 8 0 21 6 28 13 12 10 13
8 7 -8 -12 -31 -18 -57 -22 -94 -4 -42 -9 -47 -29 -31 -13 11 -14 10 -9 -4 3
-9 10 -16 16 -16 5 0 6 -4 3 -10 -3 -5 1 -10 9 -10 9 0 16 -4 16 -10 0 -5 -4
-10 -10 -10 -5 0 -10 -9 -10 -20 0 -27 18 -25 30 3 6 12 24 46 40 75 16 28 28
52 26 52 -4 0 31 41 102 118 51 56 48 54 92 91 27 24 32 33 21 40 -8 5 -9 11
-3 15 6 3 12 0 15 -6 2 -7 8 -10 12 -6 22 20 -15 28 -131 28 -97 0 -124 -3
-124 -13z"/>
<path d="M2500 5990 c0 -5 5 -10 10 -10 6 0 10 5 10 10 0 6 -4 10 -10 10 -5 0
-10 -4 -10 -10z"/>
<path d="M4694 5984 c3 -8 -1 -11 -10 -7 -9 3 -14 -1 -14 -12 0 -9 -4 -13 -10
-10 -5 3 -10 4 -10 1 0 -11 25 -62 39 -81 14 -17 14 -18 1 -8 -9 7 -21 8 -28
4 -8 -5 5 -24 43 -59 30 -29 55 -58 55 -66 0 -8 9 -18 21 -21 12 -4 18 -13 15
-20 -3 -8 4 -17 15 -20 12 -4 18 -12 15 -21 -3 -8 1 -14 8 -14 8 0 17 -7 20
-16 3 -8 2 -12 -4 -9 -6 3 -15 3 -21 -1 -8 -4 -3 -11 12 -19 19 -11 27 -10 45
2 39 25 35 -3 -4 -32 -27 -20 -31 -26 -15 -22 13 3 20 0 18 -7 -5 -13 33 -61
42 -53 3 4 0 13 -7 22 -7 8 -14 26 -15 39 -2 19 1 23 16 19 10 -3 19 -11 19
-18 0 -7 3 -15 8 -18 4 -2 1 -2 -5 -1 -7 2 -13 0 -13 -5 0 -13 27 -33 32 -24
3 4 3 2 1 -6 -4 -15 13 -31 35 -31 6 0 12 9 12 21 0 13 -4 18 -12 13 -7 -5 -9
-2 -5 9 3 9 2 17 -2 19 -5 2 -11 14 -15 28 -6 20 -5 22 4 10 10 -12 11 -11 7
8 -3 15 0 22 9 22 16 0 18 19 3 40 -8 12 -9 10 -4 -7 9 -31 -9 -29 -23 2 -8
17 -8 33 -2 50 7 20 6 27 -4 31 -10 4 -13 18 -10 47 l4 42 -12 -31 c-7 -17
-21 -39 -30 -48 -20 -19 -23 -14 -8 13 5 10 11 35 13 55 4 29 1 36 -10 32 -8
-3 -17 -6 -19 -6 -3 0 -2 -4 1 -10 7 -11 -8 -14 -18 -3 -4 3 0 11 8 17 15 11
30 76 17 75 -23 -4 -24 4 -2 17 14 8 17 13 8 10 -9 -3 -22 1 -28 9 -6 8 -19
11 -28 7 -16 -5 -16 -5 0 11 10 10 23 14 34 10 13 -5 12 -1 -5 16 -20 20 -31
22 -107 20 -63 -2 -83 -6 -80 -15z m166 -5 c0 -5 -5 -7 -10 -4 -6 3 -13 -1
-16 -9 -3 -9 -14 -16 -23 -16 -12 0 -10 5 9 20 28 22 40 25 40 9z m-16 -95 c4
-10 1 -14 -6 -12 -15 5 -23 28 -10 28 5 0 13 -7 16 -16z m56 -205 c0 -5 -4 -9
-8 -9 -5 0 -9 7 -9 15 0 8 4 12 9 9 4 -3 8 -9 8 -15z m-33 -31 c-3 -8 -6 -5
-6 6 -1 11 2 17 5 13 3 -3 4 -12 1 -19z"/>
<path d="M4633 5910 c-6 -15 -7 -26 -1 -29 15 -5 20 5 16 31 l-5 23 -10 -25z"/>
<path d="M4970 5740 c0 -5 5 -10 10 -10 6 0 10 5 10 10 0 6 -4 10 -10 10 -5 0
-10 -4 -10 -10z"/>
<path d="M2130 5715 c0 -8 2 -15 4 -15 2 0 6 7 10 15 3 8 1 15 -4 15 -6 0 -10
-7 -10 -15z"/>
<path d="M4975 5670 c-3 -5 -1 -10 4 -10 6 0 11 5 11 10 0 6 -2 10 -4 10 -3 0
-8 -4 -11 -10z"/>
<path d="M2101 5624 c0 -11 3 -14 6 -6 3 7 2 16 -1 19 -3 4 -6 -2 -5 -13z"/>
<path d="M2080 5580 c0 -5 5 -10 10 -10 6 0 10 5 10 10 0 6 -4 10 -10 10 -5 0
-10 -4 -10 -10z"/>
<path d="M2107 5563 c-11 -20 -18 -85 -8 -78 6 3 11 0 11 -7 0 -7 9 5 21 26
11 21 18 45 15 52 -6 15 -32 19 -39 7z m33 -13 c0 -5 -4 -10 -10 -10 -5 0 -10
5 -10 10 0 6 5 10 10 10 6 0 10 -4 10 -10z"/>
<path d="M4860 5522 c0 -5 7 -13 16 -16 10 -4 14 -1 12 6 -5 15 -28 23 -28 10z"/>
<path d="M4890 5459 c0 -6 9 -22 20 -36 11 -14 20 -31 20 -37 0 -7 8 -12 19
-13 17 -1 16 1 -6 23 -25 25 -23 55 3 33 8 -7 14 -7 14 -1 0 5 -7 15 -15 22
-10 9 -15 9 -15 1 0 -6 -4 -11 -10 -11 -5 0 -10 7 -10 15 0 8 -4 15 -10 15 -5
0 -10 -5 -10 -11z"/>
<path d="M4137 4723 c-1 -1 -55 -4 -121 -7 -108 -6 -324 -32 -436 -54 -49 -9
-74 -6 -64 9 3 5 1 9 -3 9 -5 0 -14 -9 -21 -20 -7 -11 -20 -20 -30 -20 -9 -1
-34 -7 -54 -14 -21 -8 -38 -9 -38 -4 0 5 -6 6 -12 1 -7 -4 -22 -9 -33 -10 -11
-2 -24 -8 -29 -13 -6 -6 -22 -10 -37 -10 -15 0 -31 -4 -34 -10 -3 -5 -15 -10
-26 -10 -10 0 -19 -4 -19 -10 0 -5 -8 -10 -18 -10 -10 0 -26 -6 -37 -14 -19
-13 -109 -41 -170 -52 -16 -3 -54 -11 -83 -19 -45 -11 -54 -11 -67 2 -13 13
-15 13 -15 -1 0 -9 -8 -16 -20 -16 -11 0 -20 6 -20 13 0 9 -2 9 -8 -1 -11 -17
-160 -12 -167 6 -2 6 -9 12 -15 12 -6 0 -8 -4 -5 -10 7 -11 -6 -13 -29 -4 -9
3 -16 12 -16 19 0 7 -7 18 -15 25 -13 11 -13 15 -3 21 9 6 5 9 -11 9 -23 0
-23 -1 -8 -18 20 -22 23 -39 4 -24 -7 6 -32 9 -55 7 -43 -4 -58 8 -22 18 11 3
20 1 20 -4 0 -5 5 -9 10 -9 6 0 10 9 10 21 0 16 -4 19 -19 14 -13 -4 -24 0
-31 12 -10 16 -11 16 -7 -4 3 -16 1 -20 -10 -16 -7 3 -12 8 -9 11 3 2 -1 14
-9 25 -11 15 -12 24 -3 34 8 10 6 13 -8 13 -22 0 -30 -46 -12 -67 7 -9 7 -13
0 -13 -6 0 -14 5 -17 10 -4 6 -16 8 -28 5 -12 -2 -16 -2 -9 1 10 5 10 9 1 20
-9 12 -15 12 -27 2 -13 -11 -15 -10 -9 5 5 13 1 17 -14 17 -16 0 -19 -4 -15
-17 4 -10 4 -14 0 -11 -4 4 -16 2 -28 -4 -11 -7 -28 -12 -36 -13 -8 0 -14 -8
-14 -17 2 -20 -11 -24 -22 -7 -4 7 -11 2 -18 -15 -11 -26 -14 -27 -106 -33
-52 -3 -104 -6 -115 -7 -83 -9 -149 -19 -200 -31 -33 -8 -77 -17 -97 -20 -21
-3 -44 -13 -53 -21 -8 -9 -15 -11 -15 -6 0 11 -215 -54 -247 -75 -21 -14 -23
-23 -23 -90 0 -67 3 -79 28 -112 36 -46 49 -79 61 -167 6 -40 15 -82 20 -95
14 -36 13 -13 -5 71 -16 76 -17 213 -3 240 5 8 18 39 30 68 20 47 80 112 105
112 5 0 22 7 37 15 24 12 86 32 122 39 6 1 26 7 45 14 108 35 365 53 540 37
36 -4 75 -6 88 -6 12 1 22 -4 22 -9 0 -5 7 -7 15 -4 8 3 20 2 27 -2 7 -5 24
-10 38 -12 13 -2 29 -7 35 -12 7 -6 16 -5 24 3 10 9 11 9 7 -3 -4 -10 4 -21
23 -32 37 -20 79 -85 87 -135 22 -123 6 -248 -56 -433 -25 -77 -105 -246 -120
-255 -6 -3 -7 -11 -4 -17 4 -6 3 -9 -2 -6 -12 8 -35 -17 -26 -28 4 -4 2 -4 -4
-1 -12 7 -78 -16 -70 -24 2 -2 -5 -5 -17 -5 -25 -2 -56 -9 -101 -23 -42 -14
-90 -19 -226 -27 -124 -6 -309 15 -338 38 -8 7 -17 12 -18 11 -19 -13 -115 74
-151 135 -14 24 -41 82 -60 130 -19 48 -31 74 -28 57 3 -16 22 -70 42 -120 46
-113 128 -202 208 -228 72 -24 236 -47 341 -48 97 0 247 17 275 32 10 5 28 9
41 9 13 0 41 7 63 16 22 8 48 17 58 21 9 3 17 9 17 14 0 5 5 9 11 9 15 0 42
34 87 110 41 67 59 114 66 165 12 91 75 255 98 255 4 0 8 6 8 14 0 7 7 19 15
26 9 7 14 19 11 26 -3 8 -2 13 2 12 4 -1 25 9 47 23 55 35 75 41 91 28 7 -6
18 -8 24 -4 5 3 10 -1 10 -10 0 -11 5 -15 14 -12 16 7 48 -28 74 -80 150 -300
152 -305 170 -292 14 11 15 11 5 -1 -17 -19 -17 -23 12 -56 14 -16 25 -33 25
-39 1 -12 54 -64 95 -92 65 -44 248 -84 403 -86 39 -1 72 -5 72 -10 0 -4 4 -6
9 -3 5 3 59 8 119 11 122 5 249 24 363 55 41 11 80 21 87 22 6 1 12 5 12 10 0
5 5 6 10 3 6 -3 10 -1 10 5 0 7 6 10 13 7 7 -3 21 1 32 9 10 8 27 14 38 14 10
0 15 5 12 10 -7 11 9 30 40 48 11 6 14 12 7 12 -14 0 -54 -27 -96 -66 -15 -13
-30 -18 -41 -14 -11 4 -25 0 -36 -11 -9 -9 -41 -20 -70 -24 -30 -4 -65 -12
-79 -17 -93 -35 -448 -51 -626 -28 -151 19 -217 44 -278 104 -45 44 -156 196
-156 214 0 3 -6 13 -13 21 -11 14 -27 48 -72 156 -7 17 -20 48 -29 69 -44 102
-2 297 76 354 9 7 23 18 30 25 7 7 53 32 103 56 88 43 211 80 350 106 39 7 70
13 70 13 0 3 162 26 264 37 109 11 332 15 388 7 52 -7 61 -6 52 5 -9 10 -8 13
4 13 8 0 18 -7 21 -16 5 -12 14 -15 36 -10 19 3 30 1 30 -5 0 -6 9 -9 20 -6
11 3 20 2 20 -2 0 -4 23 -15 50 -26 28 -11 50 -23 50 -26 0 -4 15 -24 34 -43
18 -20 38 -49 44 -64 41 -111 77 -190 83 -186 5 2 11 21 15 42 8 44 33 68 85
82 46 13 88 -2 207 -75 46 -27 96 -57 110 -65 15 -8 30 -19 33 -24 4 -4 9 -3
13 2 3 6 -3 14 -15 17 -11 4 -27 23 -35 42 -10 23 -20 33 -30 29 -7 -3 -14 -1
-14 5 0 6 -9 8 -22 4 -19 -6 -21 -5 -10 6 20 21 14 34 -7 15 -18 -17 -20 -16
-26 5 -4 12 -19 34 -33 48 -14 14 -20 19 -14 10 13 -17 7 -29 -15 -29 -8 0
-11 5 -7 12 5 7 2 9 -8 5 -11 -4 -14 -1 -11 12 5 21 -23 36 -33 19 -5 -7 -2
-8 6 -3 8 5 11 3 8 -5 -9 -27 -26 -21 -23 6 2 25 1 26 -10 11 -13 -18 -31 -24
-20 -7 3 6 -4 14 -17 19 -34 13 -45 31 -46 75 -1 21 -5 43 -10 50 -17 21 -23
64 -9 70 6 3 -1 4 -16 1 -17 -4 -26 -2 -23 4 3 5 -10 10 -29 10 -107 4 -144 0
-138 -15 7 -18 -5 -18 -23 0 -11 11 -11 16 -1 19 6 3 2 6 -10 6 -13 1 -23 -2
-23 -6 1 -11 30 -49 35 -45 12 6 25 1 25 -9 0 -6 -7 -9 -15 -5 -8 3 -15 1 -15
-4 0 -6 -9 -6 -24 0 -13 5 -27 6 -30 3 -3 -4 -6 -1 -6 6 0 6 7 14 15 17 22 9
9 23 -15 17 -15 -4 -19 -2 -15 10 4 10 -2 16 -19 19 -14 3 -23 2 -21 -2 3 -4
-2 -13 -10 -20 -9 -7 -15 -8 -15 -2 0 17 -42 24 -163 25 -65 1 -119 1 -120 0z
m483 -83 c0 -5 -4 -10 -10 -10 -5 0 -7 -8 -4 -17 5 -15 4 -16 -5 -3 -15 21
-13 40 4 40 8 0 15 -4 15 -10z m135 0 c-3 -5 1 -10 9 -10 14 0 20 -16 17 -46
-1 -6 3 -31 8 -57 4 -26 5 -44 1 -42 -4 3 -11 -2 -14 -11 -3 -9 -11 -14 -16
-12 -11 3 -21 173 -12 183 9 9 13 6 7 -5z m-1545 -100 c0 -5 -2 -10 -4 -10 -3
0 -8 5 -11 10 -3 6 -1 10 4 10 6 0 11 -4 11 -10z m-854 -25 c-8 -8 -18 -15
-22 -15 -3 0 -1 7 6 15 7 8 17 15 22 15 5 0 3 -7 -6 -15z m-163 -11 c9 -3 17
-9 17 -14 0 -5 -13 -5 -29 0 -15 4 -34 4 -41 0 -15 -9 -40 -2 -40 10 0 9 66
12 93 4z m744 -73 c0 -11 -5 -17 -9 -15 -11 7 -10 34 1 34 6 0 9 -9 8 -19z
m1818 -11 c-3 -5 -12 -10 -18 -10 -7 0 -6 4 3 10 19 12 23 12 15 0z m-1875
-34 c0 -3 -4 -8 -10 -11 -5 -3 -10 -1 -10 4 0 6 5 11 10 11 6 0 10 -2 10 -4z
m2250 -46 c0 -5 -2 -10 -4 -10 -3 0 -8 5 -11 10 -3 6 -1 10 4 10 6 0 11 -4 11
-10z m-2125 -280 c3 -6 -1 -7 -9 -4 -18 7 -21 14 -7 14 6 0 13 -4 16 -10z"/>
<path d="M3573 4703 c14 -4 16 -8 6 -19 -9 -11 -8 -14 3 -14 7 0 21 8 29 18
15 17 13 18 -20 18 -20 1 -28 -1 -18 -3z"/>
<path d="M3481 4691 c-7 -5 -9 -11 -5 -14 5 -3 15 1 22 9 14 16 5 18 -17 5z"/>
<path d="M3155 4630 c-3 -5 -1 -10 4 -10 6 0 11 5 11 10 0 6 -2 10 -4 10 -3 0
-8 -4 -11 -10z"/>
<path d="M2270 4616 c0 -8 4 -17 9 -20 5 -4 7 3 4 14 -6 23 -13 26 -13 6z"/>
<path d="M3655 4620 c-22 -4 -61 -11 -87 -14 -27 -4 -48 -11 -48 -15 0 -4 14
-6 30 -3 24 3 30 1 30 -15 0 -10 -5 -24 -12 -31 -15 -15 -8 -15 27 -2 15 6 33
6 42 2 13 -8 13 -11 -2 -25 -20 -21 -6 -22 31 -2 20 10 23 15 12 15 -10 0 -18
5 -18 11 0 7 13 10 34 7 21 -2 34 0 33 7 -1 5 6 9 17 7 15 -3 16 -1 5 11 -8 8
-17 13 -21 10 -5 -2 -8 7 -8 21 0 28 -2 28 -65 16z m42 -15 c0 -8 -4 -12 -9
-9 -5 3 -6 10 -3 15 9 13 12 11 12 -6z m-61 -13 c8 -5 7 -11 -4 -22 -14 -13
-15 -12 -9 2 3 9 1 19 -6 22 -7 2 -7 5 -2 5 6 0 15 -3 21 -7z"/>
<path d="M3765 4610 c-11 -5 -14 -9 -7 -9 7 -1 11 -5 7 -10 -3 -5 5 -13 17
-17 22 -7 22 -7 4 -14 -11 -3 -15 -9 -10 -12 5 -2 19 1 32 7 l23 13 -26 6
c-21 5 -26 12 -22 26 3 11 4 20 4 19 -1 0 -11 -4 -22 -9z"/>
<path d="M3826 4605 c4 -8 11 -15 16 -15 6 0 5 6 -2 15 -7 8 -14 15 -16 15 -2
0 -1 -7 2 -15z"/>
<path d="M2365 4601 c-3 -5 -1 -12 5 -16 5 -3 10 1 10 9 0 18 -6 21 -15 7z"/>
<path d="M2155 4580 c-3 -5 1 -10 10 -10 9 0 13 5 10 10 -3 6 -8 10 -10 10 -2
0 -7 -4 -10 -10z"/>
<path d="M2432 4581 c-11 -7 -11 -9 2 -14 10 -4 16 -1 16 8 0 17 -1 17 -18 6z"/>
<path d="M3470 4580 l-25 -8 27 -1 c15 -1 30 4 33 9 7 11 0 11 -35 0z"/>
<path d="M3408 4563 c7 -3 16 -2 19 1 4 3 -2 6 -13 5 -11 0 -14 -3 -6 -6z"/>
<path d="M3545 4560 c3 -5 8 -10 11 -10 2 0 4 5 4 10 0 6 -5 10 -11 10 -5 0
-7 -4 -4 -10z"/>
<path d="M3350 4545 c-14 -8 -20 -14 -15 -14 6 0 21 6 35 14 14 8 21 14 15 14
-5 0 -21 -6 -35 -14z"/>
<path d="M3525 4530 c3 -5 10 -10 16 -10 5 0 9 5 9 10 0 6 -7 10 -16 10 -8 0
-12 -4 -9 -10z"/>
<path d="M2617 4489 c7 -7 15 -10 18 -7 3 3 -2 9 -12 12 -14 6 -15 5 -6 -5z"/>
<path d="M2704 4482 c3 -5 0 -13 -6 -15 -9 -4 -10 -6 -1 -6 17 -1 25 16 12 25
-7 4 -9 3 -5 -4z"/>
<path d="M1990 4425 c14 -16 -3 -36 -20 -25 -22 14 -43 12 -34 -2 6 -9 3 -9
-9 0 -14 12 -15 11 -11 -11 3 -19 -3 -31 -21 -45 -14 -11 -25 -23 -25 -27 0
-4 6 -3 13 3 9 8 20 7 40 -3 31 -16 34 -13 12 9 -14 13 -13 16 5 26 19 10 25
4 21 -22 0 -5 4 -8 10 -8 8 0 7 -6 -2 -17 -13 -15 -12 -15 8 -2 12 7 19 16 14
19 -16 10 -32 50 -21 51 36 5 45 2 46 -11 3 -44 5 -50 20 -50 14 0 14 1 0 16
-20 19 -20 34 -2 34 8 0 16 5 18 11 3 8 10 6 21 -5 9 -10 18 -15 18 -12 1 3 2
10 3 15 0 5 5 13 10 18 5 5 6 3 2 -4 -4 -8 -1 -13 8 -13 9 0 16 -4 16 -10 0
-5 16 -9 35 -8 19 1 35 5 35 10 0 5 7 2 16 -6 19 -20 31 -21 15 -2 -9 10 -8
15 4 19 8 4 14 3 14 -1 -6 -39 21 -43 45 -7 16 25 46 34 46 14 0 -5 5 -7 10
-4 8 5 7 11 -1 21 -10 12 -8 13 7 8 13 -5 16 -4 9 4 -20 21 -212 37 -234 19
-12 -9 -13 -9 -7 1 6 10 -9 12 -67 10 -50 -2 -72 -6 -67 -13z m40 -9 c0 -3 -4
-8 -10 -11 -5 -3 -10 -1 -10 4 0 6 5 11 10 11 6 0 10 -2 10 -4z m-60 -31 c0
-2 -10 -10 -22 -16 -21 -11 -22 -11 -9 4 13 16 31 23 31 12z m310 -25 c0 -5
-2 -10 -4 -10 -3 0 -8 5 -11 10 -3 6 -1 10 4 10 6 0 11 -4 11 -10z"/>
<path d="M1908 4423 c7 -3 16 -2 19 1 4 3 -2 6 -13 5 -11 0 -14 -3 -6 -6z"/>
<path d="M2393 4378 c-2 -18 0 -20 7 -8 12 18 13 30 2 30 -4 0 -9 -10 -9 -22z"/>
<path d="M2095 4340 c-3 -5 -1 -10 4 -10 6 0 11 5 11 10 0 6 -2 10 -4 10 -3 0
-8 -4 -11 -10z"/>
<path d="M2512 4319 c13 -20 25 -32 27 -27 2 6 -9 22 -24 37 l-27 26 24 -36z"/>
<path d="M3708 4341 c-11 -4 -14 -11 -9 -19 6 -10 10 -10 21 3 15 19 11 25
-12 16z"/>
<path d="M3751 4334 c0 -11 3 -14 6 -6 3 7 2 16 -1 19 -3 4 -6 -2 -5 -13z"/>
<path d="M5160 4326 c0 -2 7 -6 15 -10 8 -3 15 -1 15 4 0 6 -7 10 -15 10 -8 0
-15 -2 -15 -4z"/>
<path d="M3606 4305 c-8 -8 -17 -15 -21 -15 -7 0 -35 -26 -35 -33 0 -2 18 -4
39 -3 38 2 48 -15 16 -28 -10 -3 -12 0 -8 11 4 11 2 14 -5 9 -19 -11 -14 -26
11 -35 17 -7 28 -4 46 13 l24 21 -6 -25 c-4 -14 -7 -28 -7 -33 0 -4 -12 -5
-27 -1 -19 4 -24 3 -14 -4 8 -6 9 -12 3 -16 -6 -3 -14 3 -17 14 -4 12 -18 25
-32 31 -31 11 -33 11 -33 -1 0 -5 7 -10 15 -10 18 0 39 -36 25 -45 -5 -3 -10
1 -10 9 0 18 -25 22 -35 6 -4 -6 -1 -18 6 -26 10 -12 9 -13 -3 -9 -9 4 -32
-10 -59 -36 -24 -23 -38 -38 -30 -34 25 14 82 17 96 5 12 -10 18 -10 30 0 10
8 15 9 15 2 0 -6 9 -16 20 -22 14 -7 20 -7 20 0 0 5 -7 10 -16 10 -8 0 -12 5
-9 11 10 15 69 7 77 -11 5 -11 7 -9 7 8 1 19 5 22 34 19 17 -2 74 1 126 7 l95
11 2 42 c1 24 -2 45 -7 48 -4 3 -6 12 -2 20 6 18 49 20 56 3 4 -10 6 -10 6 0
1 17 21 15 21 -2 0 -17 27 -29 43 -19 7 3 9 3 5 -2 -9 -9 19 -65 32 -65 6 0
10 4 10 10 0 5 11 12 25 16 56 14 22 41 -91 74 -34 10 -71 23 -84 30 -18 10
-24 9 -31 -1 -5 -8 -9 -9 -9 -3 0 14 -44 34 -73 34 -13 0 -28 5 -34 11 -7 7
-21 8 -34 3 -36 -11 -83 -11 -91 1 -5 7 -11 6 -16 -3 -7 -10 -11 -10 -22 3
-16 19 -25 19 -44 0z m39 -16 c11 -17 -1 -21 -15 -4 -8 9 -8 15 -2 15 6 0 14
-5 17 -11z m235 -13 c0 -3 -4 -8 -10 -11 -5 -3 -10 -1 -10 4 0 6 5 11 10 11 6
0 10 -2 10 -4z m-180 -26 c0 -5 -4 -10 -10 -10 -5 0 -10 5 -10 10 0 6 5 10 10
10 6 0 10 -4 10 -10z m203 -84 c7 -18 -1 -26 -28 -26 -14 0 -21 7 -22 20 -1
15 4 20 22 20 12 0 25 -6 28 -14z m-343 -6 c0 -5 -2 -10 -4 -10 -3 0 -8 5 -11
10 -3 6 -1 10 4 10 6 0 11 -4 11 -10z m91 -32 c-7 -15 -10 -16 -6 -4 5 16 3
17 -10 6 -19 -16 -21 4 -2 25 18 20 33 0 18 -27z m254 -8 c-3 -5 -14 -10 -23
-10 -15 0 -15 2 -2 10 20 13 33 13 25 0z m-365 -8 c0 -13 -12 -22 -22 -16 -10
6 -1 24 13 24 5 0 9 -4 9 -8z m120 -22 c0 -5 -2 -10 -4 -10 -3 0 -8 5 -11 10
-3 6 -1 10 4 10 6 0 11 -4 11 -10z"/>
<path d="M5210 4265 c0 -8 4 -15 10 -15 5 0 7 7 4 15 -4 8 -8 15 -10 15 -2 0
-4 -7 -4 -15z"/>
<path d="M1412 4265 c4 -4 -1 -22 -12 -39 -12 -20 -20 -55 -22 -98 -4 -66 -4
-66 18 -52 19 13 30 11 105 -17 46 -17 104 -37 129 -44 70 -21 188 -63 208
-74 14 -7 18 -5 19 10 1 10 -1 19 -5 19 -4 0 -8 15 -8 34 -2 64 4 59 -144 122
-36 16 -67 31 -70 34 -6 6 -132 60 -141 60 -3 0 -6 -7 -6 -15 0 -8 4 -12 9 -9
9 6 10 -31 2 -63 -4 -13 -11 -23 -16 -23 -6 0 -8 9 -5 20 3 10 1 18 -3 17 -7
-2 -12 7 -9 16 0 1 2 12 3 24 2 17 0 20 -10 12 -7 -6 -10 -17 -7 -25 3 -8 0
-14 -6 -14 -14 0 -14 37 0 46 8 5 7 10 -4 16 -9 5 -14 15 -11 22 3 8 -1 17 -8
22 -7 4 -10 4 -6 -1z m8 -79 c0 -3 -4 -8 -10 -11 -5 -3 -10 -1 -10 4 0 6 5 11
10 11 6 0 10 -2 10 -4z m34 -52 c8 -22 -4 -40 -15 -23 -11 18 -11 39 0 39 5 0
12 -7 15 -16z m136 -24 c0 -5 -5 -10 -11 -10 -5 0 -7 5 -4 10 3 6 8 10 11 10
2 0 4 -4 4 -10z m127 -52 c-3 -8 -6 -5 -6 6 -1 11 2 17 5 13 3 -3 4 -12 1 -19z"/>
<path d="M3510 4250 c0 -19 3 -21 12 -12 9 9 9 15 0 24 -9 9 -12 7 -12 -12z"/>
<path d="M3045 4190 c7 -65 41 -187 55 -195 12 -8 13 0 1 23 -18 36 -27 78
-25 110 2 21 -1 30 -8 26 -6 -4 -8 -3 -5 3 3 5 -1 27 -9 49 l-15 39 6 -55z"/>
<path d="M3416 4231 c-4 -5 -2 -12 3 -15 5 -4 12 -2 15 3 4 5 2 12 -3 15 -5 4
-12 2 -15 -3z"/>
<path d="M2510 4221 c0 -6 5 -13 10 -16 6 -3 10 -12 9 -18 0 -9 -2 -9 -6 1 -2
6 -10 12 -15 12 -6 0 -9 -3 -5 -6 3 -4 -2 -23 -13 -44 -11 -21 -16 -41 -12
-45 4 -5 0 -6 -9 -2 -21 7 -39 -11 -32 -30 4 -10 -9 -5 -35 12 -23 15 -42 35
-42 44 0 14 2 14 10 1 9 -14 14 -7 11 13 -1 5 3 6 8 2 6 -3 8 -12 4 -20 -3 -8
-1 -15 5 -15 5 0 12 11 14 25 4 19 1 25 -12 25 -10 0 -23 7 -31 16 -8 10 -22
14 -41 10 -15 -3 -30 -1 -33 4 -4 6 -11 7 -17 3 -7 -3 -27 -7 -47 -8 -19 -1
-36 -6 -39 -13 -2 -6 -10 -8 -18 -5 -8 3 -24 -1 -37 -9 -12 -7 -38 -15 -57
-16 -22 -2 -42 -12 -55 -27 -15 -18 -24 -22 -37 -14 -15 8 -18 6 -19 -13 -1
-13 -1 -27 0 -32 1 -5 -5 -6 -14 -2 -9 3 -14 2 -11 -3 3 -5 -1 -14 -10 -21 -8
-7 -13 -19 -10 -27 3 -7 1 -13 -4 -13 -6 0 -10 -5 -10 -10 0 -14 45 -30 87
-32 36 -1 40 -7 21 -27 -13 -14 -10 -14 39 6 12 5 14 3 8 -8 -5 -8 1 -5 13 5
22 19 22 19 22 0 0 -15 2 -16 9 -5 6 9 18 11 35 7 14 -3 26 -2 26 3 0 5 9 11
20 14 11 3 20 2 20 -3 0 -4 7 -10 15 -14 8 -3 14 0 12 6 -1 7 7 14 18 16 16 4
17 2 7 -11 -7 -8 -9 -18 -4 -20 4 -3 13 3 20 14 7 11 8 19 2 19 -16 0 -12 20
11 52 18 24 19 32 8 38 -7 5 -10 12 -6 16 4 4 2 13 -4 20 -13 16 -4 34 17 34
11 0 12 4 3 18 -8 12 -22 18 -40 17 -17 -1 -29 3 -29 11 0 7 14 12 35 12 19 0
35 -4 35 -10 0 -5 7 -2 16 6 20 20 19 21 19 -9 0 -14 -3 -25 -7 -25 -5 0 -8
-8 -8 -18 0 -12 15 -25 40 -36 22 -10 38 -21 35 -26 -3 -5 5 -10 17 -12 26 -4
35 -23 14 -31 -11 -4 -14 -1 -10 11 2 9 -1 7 -8 -6 -7 -15 -18 -22 -30 -19
-10 3 -21 1 -24 -4 -3 -5 -14 -9 -25 -9 -13 0 -18 -5 -14 -12 4 -7 0 -5 -7 4
-10 11 -19 14 -29 7 -13 -8 -6 -13 14 -10 4 0 7 -4 7 -10 0 -6 9 -9 20 -6 15
4 24 -2 35 -24 9 -16 13 -29 9 -29 -4 0 -1 -7 6 -15 9 -10 17 -12 23 -6 12 12
1 44 -13 36 -5 -3 -10 -2 -10 4 0 5 5 13 10 16 6 4 8 10 5 15 -3 5 5 14 17 21
13 6 20 8 16 4 -4 -5 -3 -14 4 -22 6 -7 8 -17 4 -20 -4 -4 -11 -2 -15 6 -7 10
-9 10 -14 -2 -4 -11 3 -16 23 -19 16 -2 27 -1 24 4 -3 5 6 6 20 2 30 -7 34 6
10 30 -12 13 -13 17 -2 20 21 7 48 3 42 -5 -2 -4 0 -10 5 -13 14 -9 21 20 8
34 -8 8 -8 11 -1 7 18 -10 34 40 34 110 0 50 -4 69 -17 80 -17 14 -17 14 0 9
27 -9 20 13 -9 24 -31 12 -34 12 -34 1z m38 -61 c3 -9 -1 -11 -11 -7 -22 8
-31 -10 -11 -21 11 -6 13 -11 5 -16 -6 -4 -11 -2 -11 5 0 10 -3 10 -12 1 -22
-22 -26 -13 -9 22 16 33 41 41 49 16z m-4 -66 c23 -9 20 -23 -4 -21 -11 1 -20
5 -20 10 0 4 -5 5 -11 1 -8 -4 -7 -9 2 -15 7 -4 17 -5 23 -2 5 3 6 1 2 -5 -3
-6 -2 -13 4 -17 15 -9 12 -22 -5 -22 -8 0 -15 6 -15 13 0 7 -10 19 -22 25 -21
11 -22 11 -10 -4 11 -13 10 -15 -7 -10 -12 3 -21 9 -21 14 0 5 0 12 -1 17 -1
14 60 26 85 16z m-489 -44 c3 -6 -1 -7 -9 -4 -18 7 -21 14 -7 14 6 0 13 -4 16
-10z m222 -25 c0 -8 -4 -12 -9 -9 -4 3 -8 0 -8 -5 0 -6 -4 -11 -10 -11 -5 0
-10 7 -10 15 0 8 -5 15 -11 15 -5 0 -8 4 -5 9 8 13 53 1 53 -14z m-247 -44 c0
-10 -7 -21 -15 -24 -12 -5 -12 -2 -3 18 13 30 18 31 18 6z m-40 -11 c0 -5 -5
-10 -11 -10 -5 0 -7 5 -4 10 3 6 8 10 11 10 2 0 4 -4 4 -10z m107 -12 c-3 -8
-6 -5 -6 6 -1 11 2 17 5 13 3 -3 4 -12 1 -19z m286 -2 c4 -10 1 -13 -9 -9 -15
6 -19 23 -5 23 5 0 11 -7 14 -14z m-308 -6 c3 -5 1 -10 -4 -10 -6 0 -11 5 -11
10 0 6 2 10 4 10 3 0 8 -4 11 -10z"/>
<path d="M3395 4200 c3 -5 8 -10 11 -10 2 0 4 5 4 10 0 6 -5 10 -11 10 -5 0
-7 -4 -4 -10z"/>
<path d="M3505 4190 c-3 -5 -2 -10 4 -10 5 0 13 5 16 10 3 6 2 10 -4 10 -5 0
-13 -4 -16 -10z"/>
<path d="M2420 4181 c0 -6 5 -13 10 -16 7 -4 6 -13 -1 -27 -18 -33 5 -41 24
-9 17 29 17 30 -4 36 -17 6 -19 9 -8 16 11 7 10 9 -3 9 -10 0 -18 -4 -18 -9z"/>
<path d="M3470 4170 c0 -6 7 -10 15 -10 8 0 15 2 15 4 0 2 -7 6 -15 10 -8 3
-15 1 -15 -4z"/>
<path d="M4183 4173 c-14 -5 -18 -24 -5 -21 4 1 20 -4 36 -11 37 -15 43 -8 17
18 -22 22 -27 23 -48 14z"/>
<path d="M5440 4160 c-8 -5 -12 -11 -10 -14 3 -2 14 2 24 10 22 15 10 19 -14
4z"/>
<path d="M5200 4145 c10 -12 10 -19 2 -27 -7 -7 -12 -18 -12 -26 0 -9 7 -5 19
9 11 13 23 20 27 16 5 -4 3 -11 -3 -15 -7 -5 -3 -13 12 -24 23 -18 24 -18 19
9 l-5 27 23 -24 c17 -19 34 -25 65 -25 39 -1 41 1 27 16 -8 9 -29 20 -47 23
-17 3 -41 16 -54 28 -18 16 -25 18 -37 9 -11 -9 -15 -8 -20 4 -3 8 -11 15 -17
15 -8 0 -8 -4 1 -15z"/>
<path d="M2375 4020 c3 -5 8 -10 11 -10 2 0 4 5 4 10 0 6 -5 10 -11 10 -5 0
-7 -4 -4 -10z"/>
<path d="M5508 3988 c5 -5 16 -8 23 -6 8 3 3 7 -10 11 -17 4 -21 3 -13 -5z"/>
<path d="M3111 3978 c-1 -12 31 -89 35 -85 3 2 -4 24 -15 48 -11 24 -20 41
-20 37z"/>
<path d="M2190 3920 c0 -5 5 -10 11 -10 5 0 7 5 4 10 -3 6 -8 10 -11 10 -2 0
-4 -4 -4 -10z"/>
<path d="M2322 3914 c10 -10 20 -16 22 -13 3 3 -5 11 -17 18 -21 13 -21 12 -5
-5z"/>
<path d="M2520 3915 c-7 -9 -8 -15 -2 -15 5 0 12 7 16 15 3 8 4 15 2 15 -2 0
-9 -7 -16 -15z"/>
<path d="M3565 3910 c-3 -5 -1 -10 4 -10 6 0 11 5 11 10 0 6 -2 10 -4 10 -3 0
-8 -4 -11 -10z"/>
<path d="M2492 3894 c4 -3 0 -13 -8 -22 -14 -13 -17 -13 -25 -1 -7 11 -9 11
-9 -3 0 -29 21 -32 47 -6 23 23 23 26 7 32 -10 4 -15 4 -12 0z"/>
<path d="M2255 3870 c-3 -5 -2 -10 4 -10 5 0 13 5 16 10 3 6 2 10 -4 10 -5 0
-13 -4 -16 -10z"/>
<path d="M2421 3863 c0 -13 -12 -30 -26 -39 -20 -13 -23 -20 -14 -30 13 -16
32 -8 26 9 -2 7 2 20 10 29 8 9 13 25 10 35 -4 15 -5 14 -6 -4z"/>
<path d="M3166 3853 c10 -16 24 -40 32 -56 7 -15 23 -32 35 -38 20 -11 20 -11
-2 17 -12 16 -33 46 -47 67 -13 20 -27 37 -30 37 -4 0 2 -12 12 -27z"/>
<path d="M2375 3850 c4 -6 11 -8 16 -5 14 9 11 15 -7 15 -8 0 -12 -5 -9 -10z"/>
<path d="M2344 3822 c3 -6 -2 -13 -11 -15 -14 -4 -13 -5 5 -6 23 -1 30 13 10
25 -6 4 -8 3 -4 -4z"/>
<path d="M2426 3805 c-3 -8 -1 -15 4 -15 13 0 22 18 11 24 -5 3 -11 -1 -15 -9z"/>
<path d="M2290 3781 c0 -6 4 -13 10 -16 6 -3 7 1 4 9 -7 18 -14 21 -14 7z"/>
<path d="M2373 3763 c-15 -5 -17 -23 -4 -23 5 0 11 7 15 15 3 8 4 15 3 14 -1
0 -8 -3 -14 -6z"/>
<path d="M2236 3751 c-3 -5 1 -11 9 -14 9 -4 12 -1 8 9 -6 16 -10 17 -17 5z"/>
<path d="M4571 3724 c0 -11 3 -14 6 -6 3 7 2 16 -1 19 -3 4 -6 -2 -5 -13z"/>
<path d="M3284 3702 c3 -5 2 -12 -3 -14 -5 -1 3 -12 17 -22 27 -20 27 -20 9 0
-9 12 -14 23 -11 26 3 3 0 9 -7 14 -7 4 -10 3 -5 -4z"/>
<path d="M4547 3703 c-4 -3 -7 -11 -7 -17 0 -6 5 -5 12 2 6 6 9 14 7 17 -3 3
-9 2 -12 -2z"/>
<path d="M3105 3160 c-26 -17 -27 -25 -2 -21 4 0 7 -3 7 -9 0 -15 -26 -12 -40
4 -9 12 -17 13 -36 4 -13 -6 -24 -17 -24 -25 0 -16 16 -17 24 0 3 6 3 2 0 -10
-4 -18 -1 -20 16 -16 12 3 20 0 20 -7 0 -21 92 -8 120 18 14 12 30 22 37 22 7
0 13 6 13 14 0 8 6 17 13 19 6 3 1 6 -13 6 -20 1 -22 3 -10 11 11 7 -1 10 -40
10 -38 0 -64 -6 -85 -20z"/>
<path d="M2448 3083 c7 -3 16 -2 19 1 4 3 -2 6 -13 5 -11 0 -14 -3 -6 -6z"/>
<path d="M2503 3048 c3 -9 1 -19 -6 -22 -9 -3 -9 -5 0 -5 18 -1 23 13 11 29
-8 12 -9 12 -5 -2z"/>
<path d="M2529 3013 c-13 -16 -12 -17 3 -5 11 9 18 10 23 2 3 -5 0 -10 -7 -10
-9 0 -9 -3 2 -10 18 -11 34 21 16 32 -16 11 -22 10 -37 -9z"/>
<path d="M2430 2980 c-10 -6 -11 -10 -2 -10 6 0 12 -6 12 -14 0 -8 5 -18 10
-21 6 -4 10 5 8 24 -2 34 -5 36 -28 21z"/>
<path d="M2477 2973 c-2 -5 -3 -27 -2 -50 1 -35 0 -39 -10 -26 -8 11 -14 13
-19 5 -4 -7 -14 -12 -22 -12 -8 0 -12 5 -9 10 11 17 -5 32 -21 19 -7 -6 -12
-15 -9 -19 3 -5 1 -12 -5 -15 -6 -4 -9 -1 -8 6 2 6 -3 14 -9 16 -7 3 -13 -2
-13 -11 0 -8 -8 -19 -17 -25 -17 -9 -17 -10 0 -16 9 -4 17 -15 17 -24 0 -13 2
-13 9 -2 6 9 11 10 15 2 4 -6 16 -11 27 -11 17 0 18 -3 9 -21 -7 -11 -14 -18
-17 -15 -4 3 -13 0 -21 -7 -13 -10 -14 -9 -4 10 16 29 15 38 -2 24 -8 -7 -13
-20 -11 -30 2 -10 -10 -30 -26 -45 -16 -15 -27 -32 -24 -37 4 -5 -1 -6 -9 -3
-10 4 -16 1 -16 -9 0 -21 -25 -38 -44 -31 -9 3 -14 10 -11 14 3 5 1 11 -4 14
-22 14 -21 -16 1 -34 22 -19 22 -21 -4 -24 -7 -1 -12 -9 -12 -19 1 -9 -2 -17
-7 -17 -5 0 -9 5 -9 10 0 16 -14 12 -50 -15 l-33 -24 26 -10 c28 -11 34 -25
17 -36 -19 -12 -10 -26 10 -15 16 9 18 8 14 -5 -8 -21 8 -19 28 4 18 21 14 33
-7 25 -7 -3 -16 -1 -20 5 -3 6 1 11 9 11 9 0 16 5 16 10 0 6 5 10 10 10 6 0
10 -8 8 -17 -3 -19 22 -25 34 -9 4 6 10 7 14 3 9 -9 -10 -30 -30 -33 -23 -3
-64 -37 -75 -61 -13 -28 3 -30 22 -3 13 19 14 19 27 0 7 -10 17 -17 22 -14 4
3 8 0 8 -6 0 -7 6 -7 22 1 l21 11 -24 19 c-18 14 -27 15 -38 6 -12 -10 -12 -9
0 11 8 12 17 22 21 22 19 0 38 -14 38 -27 0 -12 3 -13 13 -4 10 8 17 7 27 -2
10 -10 12 -8 7 11 -3 12 -1 20 3 17 5 -3 11 -1 15 5 4 6 11 8 16 5 13 -9 34
16 34 40 0 14 6 19 19 17 12 -2 16 1 11 10 -3 7 1 4 9 -6 18 -22 21 -36 7 -36
-14 0 -7 -27 13 -49 10 -11 15 -25 10 -32 -5 -8 -3 -10 5 -5 7 5 10 14 7 22
-4 11 -1 12 17 1 12 -6 24 -14 27 -17 3 -3 16 -6 29 -8 17 -1 22 2 18 13 -4 8
3 21 14 29 17 11 19 18 10 33 -9 16 -10 17 -11 1 0 -19 -29 -58 -42 -58 -4 0
-4 8 -1 18 6 15 5 15 -10 4 -20 -17 -37 -8 -37 21 0 20 0 20 -15 1 -8 -10 -15
-14 -15 -8 0 15 35 46 43 37 4 -3 7 -2 7 4 0 6 8 14 18 18 14 5 15 4 5 -6 -15
-15 -17 -33 -4 -24 5 3 12 -3 14 -12 4 -15 6 -15 12 5 4 12 12 22 17 22 6 0 8
11 6 24 -5 23 -3 23 26 13 17 -5 36 -14 42 -19 8 -5 14 -3 18 8 4 11 2 15 -6
11 -7 -2 -21 -1 -32 2 -18 7 -18 8 -1 25 11 10 14 21 9 24 -11 8 -12 27 -1 38
4 4 7 0 7 -9 0 -22 14 -22 31 0 12 15 12 16 -3 10 -10 -3 -18 -3 -18 2 0 5 9
11 20 14 10 3 18 0 17 -5 -3 -13 51 -20 58 -7 3 5 -1 6 -9 3 -17 -7 -22 11 -6
21 6 3 10 11 10 16 0 6 -7 3 -16 -6 -22 -22 -31 -10 -10 14 16 17 15 20 -2 41
-13 16 -21 20 -26 11 -4 -7 -2 -10 5 -9 6 2 14 -3 17 -11 2 -8 0 -11 -5 -8 -6
4 -15 -4 -22 -16 -14 -27 -48 -50 -61 -42 -13 8 32 57 47 51 7 -3 13 -1 13 4
0 6 -5 10 -10 10 -6 0 -8 10 -4 24 8 32 -5 74 -17 55 -4 -8 -4 -16 2 -20 12
-7 -6 -59 -20 -59 -13 0 -20 25 -14 49 3 11 -1 27 -10 35 -13 14 -16 14 -27 0
-11 -12 -10 -13 5 -8 14 6 16 4 10 -6 -5 -9 -4 -11 3 -6 13 8 16 -6 5 -18 -8
-8 -9 -13 -12 -41 0 -8 -8 -15 -16 -15 -8 0 -15 -7 -15 -15 0 -8 -4 -15 -10
-15 -16 0 -12 30 5 36 11 5 13 10 5 19 -8 9 -6 17 5 28 10 11 12 18 4 22 -6 4
-8 13 -5 20 6 17 -26 25 -49 12 -15 -8 -17 -7 -12 7 4 10 7 24 7 32 0 8 7 14
15 14 9 0 12 -6 9 -17 -5 -15 -4 -15 4 -4 7 10 7 21 1 33 -11 21 -20 23 -37 6
-9 -9 -12 -9 -12 0 0 7 5 12 10 12 6 0 10 5 10 11 0 6 -7 8 -16 5 -9 -3 -12
-2 -9 5 4 6 13 8 21 5 7 -3 16 -1 19 4 4 6 -1 10 -10 10 -9 0 -13 5 -10 10 3
6 -1 10 -9 10 -8 0 -17 -3 -19 -7z m-57 -108 c11 -13 10 -14 -4 -9 -9 3 -16
10 -16 15 0 13 6 11 20 -6z m-30 -5 c0 -5 -2 -10 -4 -10 -3 0 -8 5 -11 10 -3
6 -1 10 4 10 6 0 11 -4 11 -10z m137 -76 c-3 -3 -12 -4 -19 -1 -8 3 -5 6 6 6
11 1 17 -2 13 -5z m-104 -19 c-3 -9 -8 -14 -10 -11 -3 3 -2 9 2 15 9 16 15 13
8 -4z m97 -15 c0 -5 -4 -10 -10 -10 -5 0 -10 5 -10 10 0 6 5 10 10 10 6 0 10
-4 10 -10z m-153 -77 c-3 -2 -11 -5 -19 -7 -7 -1 -18 -5 -25 -9 -6 -4 -15 -2
-19 4 -4 8 -3 9 4 5 7 -4 12 -3 12 3 0 5 8 11 18 14 18 4 36 -2 29 -10z m123
-7 c0 -3 -4 -8 -10 -11 -5 -3 -10 -1 -10 4 0 6 5 11 10 11 6 0 10 -2 10 -4z
m-116 -21 c-4 -8 -10 -12 -15 -9 -6 3 -16 0 -24 -6 -9 -8 -15 -8 -15 -2 0 9
11 14 57 31 1 1 0 -6 -3 -14z m-83 -38 c-15 -15 -49 -19 -56 -7 -3 6 1 10 10
10 12 0 15 5 11 16 -5 14 -4 15 9 4 12 -10 16 -9 22 6 7 18 8 18 11 0 2 -10
-1 -23 -7 -29z m316 1 c-3 -8 -6 -5 -6 6 -1 11 2 17 5 13 3 -3 4 -12 1 -19z
m-234 -37 c-24 -21 -43 -43 -43 -49 0 -7 -5 -12 -11 -12 -5 0 -7 5 -4 10 3 6
2 10 -3 10 -16 0 -22 -13 -12 -25 7 -8 5 -12 -5 -12 -21 0 -19 14 6 49 12 16
27 27 34 24 8 -3 15 -2 17 2 3 8 50 41 58 41 3 1 -14 -17 -37 -38z m117 29 c0
-5 -2 -10 -4 -10 -3 0 -8 5 -11 10 -3 6 -1 10 4 10 6 0 11 -4 11 -10z m70 -4
c0 -3 -4 -8 -10 -11 -5 -3 -10 -1 -10 4 0 6 5 11 10 11 6 0 10 -2 10 -4z m-69
-36 c9 13 10 13 6 0 -2 -8 -10 -15 -17 -15 -7 0 -15 7 -17 15 -4 13 -3 13 6 0
10 -13 12 -13 22 0z m-111 -36 c0 -8 -19 -13 -24 -6 -3 5 1 9 9 9 8 0 15 -2
15 -3z"/>
<path d="M2380 2940 c-9 -6 -10 -10 -3 -10 6 0 15 5 18 10 8 12 4 12 -15 0z"/>
<path d="M2553 2880 c-1 -13 3 -17 14 -13 11 4 14 2 9 -5 -4 -7 -3 -12 2 -12
6 0 12 7 16 15 6 16 37 10 33 -7 -1 -6 5 -13 13 -15 13 -4 13 -3 0 6 -11 8
-12 11 -2 11 27 0 -14 28 -49 34 -29 4 -35 2 -36 -14z"/>
<path d="M2872 2858 c-15 -15 -15 -28 0 -28 6 0 8 3 5 7 -4 3 -2 12 4 20 14
16 7 17 -9 1z"/>
<path d="M2820 2840 c0 -5 5 -10 11 -10 5 0 7 5 4 10 -3 6 -8 10 -11 10 -2 0
-4 -4 -4 -10z"/>
<path d="M2923 2830 c1 -14 4 -16 14 -8 16 13 16 15 -1 21 -10 4 -14 0 -13
-13z"/>
<path d="M2325 2819 c-4 -6 -5 -12 -2 -15 2 -3 7 2 10 11 7 17 1 20 -8 4z"/>
<path d="M3055 2820 c-3 -5 -1 -10 4 -10 6 0 11 5 11 10 0 6 -2 10 -4 10 -3 0
-8 -4 -11 -10z"/>
<path d="M2146 2794 c-5 -14 -4 -15 9 -4 17 14 19 20 6 20 -5 0 -12 -7 -15
-16z"/>
<path d="M2745 2790 c-3 -5 1 -13 10 -16 22 -9 29 1 11 15 -10 8 -16 9 -21 1z"/>
<path d="M2796 2792 c-11 -18 5 -40 25 -35 25 7 25 -13 -1 -27 -11 -6 -20 -16
-20 -23 0 -7 4 -6 10 3 5 8 10 11 10 7 0 -4 11 4 25 18 14 14 30 25 36 25 5 0
4 6 -3 14 -14 16 -29 16 -41 1 -4 -6 -13 -3 -21 8 -8 10 -17 14 -20 9z"/>
<path d="M2919 2798 c-4 -16 -6 -23 -12 -38 -3 -8 -5 -26 -4 -40 1 -18 -4 -26
-18 -28 -16 -2 -17 -1 -5 7 12 8 12 13 2 23 -9 9 -16 7 -32 -10 -12 -13 -16
-22 -9 -22 7 0 10 -2 7 -5 -12 -12 -58 8 -58 25 0 10 -6 23 -14 29 -11 9 -15
8 -20 -5 -4 -10 -1 -22 5 -28 9 -8 10 -6 6 7 -4 11 -3 16 3 12 12 -7 10 -64
-2 -71 -13 -8 -9 -21 7 -28 8 -3 21 2 30 10 11 12 19 13 32 4 13 -8 13 -10 3
-7 -9 3 -23 -1 -32 -7 -16 -12 -16 -14 2 -28 17 -15 19 -15 24 5 6 21 7 21 20
5 7 -10 18 -18 25 -18 6 0 11 -6 11 -14 0 -21 21 -31 31 -15 7 11 9 10 9 -3 0
-10 7 -18 16 -18 11 0 14 6 9 20 -5 14 -2 20 10 20 9 0 13 -4 10 -10 -3 -6 1
-7 9 -4 13 5 13 8 1 20 -7 8 -21 11 -31 7 -13 -5 -16 -3 -11 10 6 16 3 17 -42
8 -2 -1 2 -8 9 -16 14 -17 0 -21 -17 -4 -14 14 -5 49 13 49 8 0 14 -4 14 -8 0
-5 18 -8 40 -6 22 1 38 -2 35 -7 -4 -5 1 -6 10 -3 11 5 14 2 9 -12 -5 -16 -4
-16 5 -4 15 21 14 30 -5 30 -13 0 -14 3 -5 14 9 11 9 16 1 21 -7 4 -9 18 -5
32 3 14 2 22 -4 19 -5 -3 -11 1 -15 9 -6 17 9 21 19 5 4 -6 11 -8 16 -4 15 9
-11 36 -28 30 -11 -5 -13 0 -7 17 6 22 6 22 -15 -2 -23 -27 -26 -26 -40 9 -5
14 -11 22 -12 18z m16 -58 c3 -5 1 -10 -4 -10 -6 0 -11 5 -11 10 0 6 2 10 4
10 3 0 8 -4 11 -10z m37 -25 c3 -13 1 -22 -3 -19 -9 5 -13 44 -5 44 2 0 6 -11
8 -25z m-112 -55 c0 -5 -7 -10 -15 -10 -8 0 -15 5 -15 10 0 6 7 10 15 10 8 0
15 -4 15 -10z m115 0 c3 -5 -1 -10 -9 -10 -9 0 -16 5 -16 10 0 6 4 10 9 10 6
0 13 -4 16 -10z"/>
<path d="M2331 2774 c0 -11 3 -14 6 -6 3 7 2 16 -1 19 -3 4 -6 -2 -5 -13z"/>
<path d="M2235 2760 c3 -5 10 -10 16 -10 5 0 9 5 9 10 0 6 -7 10 -16 10 -8 0
-12 -4 -9 -10z"/>
<path d="M2170 2750 c0 -13 18 -22 24 -11 3 5 -1 11 -9 15 -8 3 -15 1 -15 -4z"/>
<path d="M3048 2753 c7 -3 16 -2 19 1 4 3 -2 6 -13 5 -11 0 -14 -3 -6 -6z"/>
<path d="M2210 2725 c0 -8 4 -15 10 -15 5 0 7 7 4 15 -4 8 -8 15 -10 15 -2 0
-4 -7 -4 -15z"/>
<path d="M3061 2733 c0 -5 5 -17 10 -28 9 -19 9 -19 5 2 -2 12 1 24 8 27 6 2
3 5 -6 5 -10 1 -18 -2 -17 -6z"/>
<path d="M2110 2707 c0 -7 11 -12 24 -12 28 0 26 10 -4 18 -11 3 -20 0 -20 -6z"/>
<path d="M3017 2703 c-3 -5 2 -19 12 -30 11 -11 21 -29 24 -39 3 -14 5 -11 6
9 0 15 -4 27 -9 27 -6 0 -14 10 -19 22 -4 12 -11 17 -14 11z"/>
<path d="M2240 2689 c0 -5 5 -7 10 -4 6 3 10 8 10 11 0 2 -4 4 -10 4 -5 0 -10
-5 -10 -11z"/>
<path d="M2097 2679 c7 -7 15 -10 18 -7 3 3 -2 9 -12 12 -14 6 -15 5 -6 -5z"/>
<path d="M2133 2647 c1 -19 -4 -31 -11 -30 -6 2 -9 -4 -6 -12 7 -17 22 -10 42
16 7 10 19 16 27 13 8 -4 15 -1 15 5 0 6 -7 11 -16 11 -9 0 -12 5 -8 13 4 6 4
9 -1 5 -4 -4 -15 -3 -25 2 -15 8 -17 5 -17 -23z"/>
<path d="M3165 2650 c-3 -6 1 -7 9 -4 18 7 21 14 7 14 -6 0 -13 -4 -16 -10z"/>
<path d="M3117 2643 c-4 -3 -7 -18 -7 -31 0 -31 9 -24 16 12 4 27 2 31 -9 19z"/>
<path d="M2058 2633 c6 -2 18 -2 25 0 6 3 1 5 -13 5 -14 0 -19 -2 -12 -5z"/>
<path d="M2710 2630 c0 -5 5 -10 10 -10 6 0 10 5 10 10 0 6 -4 10 -10 10 -5 0
-10 -4 -10 -10z"/>
<path d="M2059 2604 c-18 -22 -19 -54 -1 -54 8 0 12 6 8 15 -3 9 0 15 9 15 8
0 15 5 15 11 0 5 -6 7 -12 3 -9 -5 -9 -2 1 9 7 9 9 17 3 17 -5 0 -15 -7 -23
-16z"/>
<path d="M2760 2606 c0 -22 -17 -28 -40 -16 -15 8 -19 7 -15 -2 5 -14 -38 -68
-55 -68 -5 0 -10 6 -10 13 0 17 -20 -14 -20 -32 0 -10 3 -11 13 -2 8 6 17 8
20 5 8 -8 30 14 42 41 8 19 9 19 13 -4 2 -13 -1 -27 -6 -30 -6 -4 -16 -19 -21
-34 -16 -40 2 -25 25 22 l19 39 17 -26 c10 -15 18 -21 18 -13 0 8 7 23 17 33
10 11 12 18 4 18 -6 0 -14 -7 -17 -15 -4 -8 -11 -15 -16 -15 -6 0 -2 12 7 27
20 30 28 73 14 73 -5 0 -9 -6 -9 -14z m-6 -41 c3 3 2 0 -3 -6 -12 -14 -45 -3
-36 11 5 8 11 8 19 1 7 -6 16 -9 20 -6z"/>
<path d="M3140 2601 c0 -6 4 -13 10 -16 6 -3 7 1 4 9 -7 18 -14 21 -14 7z"/>
<path d="M3082 2580 c0 -14 2 -19 5 -12 2 6 2 18 0 25 -3 6 -5 1 -5 -13z"/>
<path d="M2790 2571 c0 -5 5 -13 10 -16 6 -3 10 -2 10 4 0 5 -4 13 -10 16 -5
3 -10 2 -10 -4z"/>
<path d="M2848 2573 c7 -3 16 -2 19 1 4 3 -2 6 -13 5 -11 0 -14 -3 -6 -6z"/>
<path d="M3000 2550 c0 -5 5 -10 11 -10 5 0 7 5 4 10 -3 6 -8 10 -11 10 -2 0
-4 -4 -4 -10z"/>
<path d="M3182 2540 c0 -14 2 -19 5 -12 2 6 2 18 0 25 -3 6 -5 1 -5 -13z"/>
<path d="M2595 2540 c3 -5 8 -10 11 -10 2 0 4 5 4 10 0 6 -5 10 -11 10 -5 0
-7 -4 -4 -10z"/>
<path d="M2105 2530 c-3 -5 -3 -14 0 -20 3 -5 1 -10 -4 -10 -6 0 -11 -5 -11
-11 0 -6 6 -9 13 -6 16 6 41 -20 27 -28 -6 -3 -10 -1 -10 4 0 6 -4 11 -9 11
-10 0 -9 -19 2 -36 3 -6 4 -14 0 -18 -9 -8 -35 32 -28 43 3 5 1 12 -4 15 -10
7 -25 -60 -16 -74 3 -6 1 -10 -6 -10 -7 0 -4 -6 6 -14 11 -8 23 -12 27 -10 4
2 9 0 12 -5 3 -5 -5 -12 -19 -15 -14 -4 -25 -11 -25 -16 0 -6 9 -5 21 2 17 10
23 10 26 1 9 -24 25 -13 20 13 -3 18 -1 24 8 20 19 -7 27 5 14 21 -9 10 -8 13
2 13 10 1 9 5 -4 14 -16 13 -16 15 -2 30 14 14 14 17 -5 36 -12 12 -19 28 -16
35 6 17 -10 30 -19 15z m-18 -132 c2 -18 0 -20 -7 -8 -12 18 -13 30 -2 30 4 0
9 -10 9 -22z"/>
<path d="M2885 2530 c4 -6 11 -8 16 -5 14 9 11 15 -7 15 -8 0 -12 -5 -9 -10z"/>
<path d="M2847 2514 c3 -10 0 -12 -10 -8 -8 3 -18 0 -22 -7 -6 -8 -1 -10 18
-7 18 4 27 0 30 -11 3 -9 4 -4 4 11 -1 15 -7 30 -14 32 -7 3 -10 -1 -6 -10z"/>
<path d="M2397 2479 c3 -11 0 -19 -8 -19 -7 0 -9 -3 -6 -6 4 -4 13 -1 22 6 12
10 15 10 15 -4 0 -9 4 -16 10 -16 13 0 -9 47 -25 54 -8 3 -11 -2 -8 -15z"/>
<path d="M2340 2476 c0 -2 7 -7 16 -10 8 -3 12 -2 9 4 -6 10 -25 14 -25 6z"/>
<path d="M2738 2463 c7 -3 16 -2 19 1 4 3 -2 6 -13 5 -11 0 -14 -3 -6 -6z"/>
<path d="M2820 2459 c0 -5 5 -7 10 -4 6 3 10 8 10 11 0 2 -4 4 -10 4 -5 0 -10
-5 -10 -11z"/>
<path d="M2347 2449 c7 -7 15 -10 18 -7 3 3 -2 9 -12 12 -14 6 -15 5 -6 -5z"/>
<path d="M3800 2416 c0 -2 7 -7 16 -10 8 -3 12 -2 9 4 -6 10 -25 14 -25 6z"/>
<path d="M2250 2401 c0 -5 -9 -11 -21 -14 -13 -4 -18 -10 -14 -17 4 -7 10 -8
14 -3 7 10 49 9 59 -2 4 -5 -1 -5 -10 -2 -13 5 -18 1 -18 -11 0 -11 -8 -18
-19 -18 -11 0 -17 4 -15 8 3 4 0 8 -5 8 -6 0 -11 -6 -11 -14 0 -8 -8 -21 -19
-28 -10 -7 -17 -21 -15 -30 1 -10 -2 -18 -8 -18 -7 0 -8 16 -5 45 4 26 3 45
-3 45 -5 0 -7 -7 -4 -15 6 -15 -9 -20 -49 -17 -10 1 -28 -5 -40 -14 -14 -10
-16 -14 -5 -11 20 7 50 -25 42 -46 -4 -11 1 -16 18 -19 17 -2 23 -9 23 -28 0
-15 5 -24 13 -22 8 1 11 -2 7 -8 -3 -6 -11 -8 -16 -5 -5 4 -18 8 -28 10 -14 3
-18 -1 -14 -11 3 -8 10 -14 15 -14 5 0 8 -6 6 -12 -3 -7 4 -19 14 -28 19 -15
17 -50 -3 -50 -5 0 -9 -5 -9 -11 0 -6 7 -8 18 -4 13 5 14 3 5 -6 -6 -6 -9 -18
-5 -27 4 -11 1 -14 -11 -9 -9 3 -17 2 -17 -3 0 -6 5 -10 10 -10 6 0 10 -6 9
-12 -4 -34 2 -58 15 -58 11 0 13 -7 6 -29 -7 -25 -6 -29 8 -23 15 5 15 3 -1
-21 -17 -27 -17 -29 1 -52 15 -19 21 -22 25 -11 3 8 1 16 -6 19 -10 3 18 52
50 85 16 17 17 25 1 17 -7 -4 -4 1 6 9 11 9 14 16 8 16 -17 0 -15 27 3 34 8 3
12 12 9 19 -5 13 16 29 41 31 6 1 11 5 12 10 1 5 7 12 14 17 8 4 11 11 7 14
-3 3 -13 -1 -21 -10 -28 -27 -47 -19 -44 20 1 19 5 35 9 35 4 0 8 10 10 23 2
14 9 21 21 21 14 -2 15 1 6 12 -9 11 -8 14 2 14 8 0 -1 8 -18 16 -18 9 -30 21
-27 26 3 5 1 14 -5 21 -6 8 -7 18 0 27 9 13 10 13 8 0 -3 -20 11 -50 22 -50
14 0 11 28 -3 33 -8 3 -6 6 5 6 9 1 17 7 17 15 0 15 27 29 39 21 5 -2 6 7 3
22 -4 22 -2 25 12 20 10 -4 31 -7 47 -7 17 0 28 -4 24 -9 -3 -5 -1 -12 5 -16
5 -3 10 1 10 9 0 19 40 21 59 4 11 -10 13 -10 7 0 -13 22 6 37 21 17 12 -18
13 -17 13 6 0 19 2 21 10 9 5 -8 10 -12 10 -7 0 4 17 -2 37 -13 44 -23 75 -26
67 -6 -6 17 18 27 36 16 8 -5 22 -4 33 2 10 5 21 7 24 4 4 -3 12 -1 19 4 8 8
16 6 27 -4 8 -8 18 -12 21 -9 4 4 26 6 49 4 40 -2 41 -1 25 16 -12 11 -30 16
-53 15 -19 -2 -35 2 -35 8 0 5 -5 10 -11 10 -5 0 -7 -4 -4 -10 4 -6 -2 -7 -17
-2 -13 4 -57 8 -98 7 -41 0 -78 4 -82 10 -4 5 -16 1 -29 -10 -17 -15 -21 -16
-17 -4 5 12 0 14 -23 11 -16 -2 -37 2 -46 9 -12 10 -14 10 -9 2 10 -17 -26
-17 -42 -1 -9 9 -12 9 -12 0 0 -8 -14 -10 -47 -6 -26 3 -50 7 -54 10 -4 2 -10
-2 -12 -8 -4 -9 -6 -8 -6 2 -1 16 -71 27 -71 11z m510 -55 c0 -2 -7 -6 -15
-10 -8 -3 -15 -1 -15 4 0 6 7 10 15 10 8 0 15 -2 15 -4z m-483 -23 c-4 -3 -2
-12 4 -19 7 -8 7 -14 -1 -19 -5 -3 -10 1 -10 9 0 10 -6 13 -15 10 -8 -4 -15
-1 -15 6 0 6 4 9 9 5 5 -3 12 -1 16 5 3 5 9 10 12 10 4 0 3 -3 0 -7z m393 -3
c0 -5 -5 -10 -11 -10 -5 0 -7 5 -4 10 3 6 8 10 11 10 2 0 4 -4 4 -10z m-543
-34 c-2 -6 3 -16 11 -22 13 -9 12 -12 -5 -16 -15 -4 -19 0 -18 16 1 12 -5 26
-14 33 -14 10 -13 11 7 6 13 -3 21 -11 19 -17z m126 -31 c-3 -9 -8 -14 -10
-11 -3 3 -2 9 2 15 9 16 15 13 8 -4z m7 -45 c0 -5 -10 -10 -22 -10 -19 0 -20
2 -8 10 19 13 30 13 30 0z m20 -25 c0 -2 -13 -11 -29 -20 -22 -11 -32 -12 -37
-3 -4 6 -3 8 3 5 6 -4 16 0 23 8 12 14 40 21 40 10z m-80 -45 c0 -5 -7 -7 -15
-4 -8 4 -15 8 -15 10 0 2 7 4 15 4 8 0 15 -4 15 -10z m63 -75 c-3 -9 -8 -14
-10 -11 -3 3 -2 9 2 15 9 16 15 13 8 -4z m-3 -45 c0 -5 -4 -10 -10 -10 -5 0
-10 5 -10 10 0 6 5 10 10 10 6 0 10 -4 10 -10z m-71 -63 c-2 -1 -12 -9 -22
-16 -15 -12 -17 -12 -11 3 3 9 13 16 22 16 8 0 13 -1 11 -3z m-3 -64 c-11 -11
-17 4 -9 23 7 18 8 18 11 1 2 -10 1 -21 -2 -24z m21 -18 c0 -8 -4 -15 -9 -15
-10 0 -11 14 -1 23 9 10 10 9 10 -8z"/>
<path d="M3738 2384 c3 -17 7 -22 12 -13 9 13 2 39 -10 39 -4 0 -5 -12 -2 -26z"/>
<path d="M3820 2370 c18 -12 30 -13 30 -2 0 4 -10 9 -22 9 -18 2 -20 0 -8 -7z"/>
<path d="M2959 2360 c-22 -4 -24 -7 -14 -17 10 -10 16 -9 26 3 9 11 14 12 20
3 8 -13 74 -5 84 11 5 9 -69 9 -116 0z"/>
<path d="M3720 2360 c0 -14 -43 -30 -55 -20 -5 5 -56 7 -112 7 -55 -1 -99 1
-96 6 2 4 -7 2 -21 -5 -30 -13 -29 -16 5 -22 13 -2 24 -5 24 -6 0 -1 23 -4 50
-5 89 -5 137 -14 153 -27 12 -10 14 -10 8 0 -14 24 23 12 49 -15 14 -15 25
-23 25 -18 0 6 5 3 10 -5 8 -12 13 -13 29 -3 29 18 36 -20 7 -44 -11 -9 -15
-11 -8 -3 6 8 12 19 12 25 0 5 -5 2 -11 -8 -6 -9 -15 -15 -20 -12 -5 4 -7 11
-4 16 4 5 2 9 -3 9 -22 0 -17 -14 16 -45 31 -28 40 -31 61 -24 17 7 27 6 33
-3 6 -10 8 -10 8 0 0 6 5 12 11 12 6 0 8 -11 4 -29 -4 -21 -2 -30 11 -35 9 -4
19 -4 22 -1 3 3 1 5 -5 5 -6 0 -13 7 -17 15 -4 12 0 14 21 9 18 -5 24 -4 19 5
-4 6 -15 11 -24 11 -16 1 -16 2 0 14 14 10 15 15 5 26 -10 10 -9 11 3 6 8 -4
6 0 -4 8 -11 9 -25 16 -30 16 -6 0 -4 -5 4 -10 13 -9 12 -12 -4 -25 -11 -8
-22 -12 -25 -9 -3 3 1 9 9 14 12 8 11 13 -7 38 -16 22 -19 32 -10 48 9 17 9
18 -6 5 -10 -8 -20 -11 -24 -7 -3 3 -1 6 5 6 7 0 12 5 12 11 0 6 -7 8 -17 5
-10 -4 -14 -4 -10 0 9 10 -30 37 -43 29 -6 -3 -10 -1 -10 4 0 6 -7 11 -15 11
-8 0 -15 -4 -15 -10 0 -5 -5 -10 -11 -10 -7 0 -9 10 -5 25 4 14 4 25 1 25 -3
0 -5 -5 -5 -10z m31 -67 c-12 -20 -14 -14 -5 12 4 9 9 14 11 11 3 -2 0 -13 -6
-23z m24 -13 c3 -5 1 -10 -4 -10 -6 0 -11 5 -11 10 0 6 2 10 4 10 3 0 8 -4 11
-10z m85 -84 c0 -8 -4 -18 -10 -21 -5 -3 -10 3 -10 14 0 12 5 21 10 21 6 0 10
-6 10 -14z"/>
<path d="M3108 2353 c7 -3 16 -2 19 1 4 3 -2 6 -13 5 -11 0 -14 -3 -6 -6z"/>
<path d="M3270 2343 c0 -4 29 -9 65 -10 36 -1 63 2 61 5 -6 10 -126 15 -126 5z"/>
<path d="M3901 2313 c7 -12 15 -20 18 -17 3 2 -3 12 -13 22 -17 16 -18 16 -5
-5z"/>
<path d="M3890 2291 c0 -10 19 -25 25 -20 1 2 -3 10 -11 17 -8 7 -14 8 -14 3z"/>
<path d="M2377 2240 c8 -30 21 -34 15 -5 -2 14 -8 25 -12 25 -5 0 -6 -9 -3
-20z"/>
<path d="M3907 2249 c7 -7 15 -10 18 -7 3 3 -2 9 -12 12 -14 6 -15 5 -6 -5z"/>
<path d="M2336 2218 c4 -6 0 -14 -7 -19 -8 -5 -9 -9 -3 -9 5 0 18 6 29 13 17
13 17 14 -4 20 -13 3 -19 1 -15 -5z"/>
<path d="M2110 2199 c0 -5 5 -7 10 -4 6 3 10 8 10 11 0 2 -4 4 -10 4 -5 0 -10
-5 -10 -11z"/>
<path d="M2485 2170 c3 -5 10 -10 16 -10 5 0 9 5 9 10 0 6 -7 10 -16 10 -8 0
-12 -4 -9 -10z"/>
<path d="M3846 2142 c-3 -5 1 -15 8 -21 11 -10 14 -9 12 3 -3 21 -13 29 -20
18z"/>
<path d="M2305 2120 c-3 -5 -1 -10 4 -10 6 0 11 5 11 10 0 6 -2 10 -4 10 -3 0
-8 -4 -11 -10z"/>
<path d="M2548 2123 c7 -3 16 -2 19 1 4 3 -2 6 -13 5 -11 0 -14 -3 -6 -6z"/>
<path d="M2576 2104 c-4 -9 -4 -19 -1 -22 2 -3 7 3 11 12 4 9 4 19 1 22 -2 3
-7 -3 -11 -12z"/>
<path d="M2608 2086 l-16 -33 24 11 c25 11 32 26 13 26 -8 0 -8 5 1 15 7 8 8
15 3 15 -5 0 -17 -15 -25 -34z"/>
<path d="M3820 2111 c0 -6 4 -13 10 -16 6 -3 7 1 4 9 -7 18 -14 21 -14 7z"/>
<path d="M2496 2093 c-6 -14 -5 -15 5 -6 7 7 10 15 7 18 -3 3 -9 -2 -12 -12z"/>
<path d="M2650 2098 c0 -6 3 -8 7 -5 3 4 13 1 22 -6 14 -11 14 -10 2 6 -15 20
-31 22 -31 5z"/>
<path d="M2085 2090 c-3 -5 -1 -10 4 -10 6 0 11 5 11 10 0 6 -2 10 -4 10 -3 0
-8 -4 -11 -10z"/>
<path d="M3870 2087 c0 -7 -5 -18 -12 -25 -9 -9 -18 -7 -37 11 -21 18 -23 19
-11 2 8 -11 19 -23 24 -27 6 -4 5 -13 -3 -22 -11 -13 -9 -15 9 -13 15 1 20 6
16 20 -3 11 0 16 7 14 7 -3 11 -10 9 -16 -1 -7 2 -10 8 -6 6 4 7 12 1 23 -6
11 -4 20 6 27 14 11 14 12 -1 18 -9 4 -16 1 -16 -6z"/>
<path d="M2746 2075 c-9 -26 -7 -32 5 -12 6 10 9 21 6 23 -2 3 -7 -2 -11 -11z"/>
<path d="M3760 2070 c0 -5 5 -10 11 -10 5 0 7 5 4 10 -3 6 -8 10 -11 10 -2 0
-4 -4 -4 -10z"/>
<path d="M2773 2063 c-7 -2 -13 -9 -13 -14 0 -6 5 -7 10 -4 6 3 10 1 10 -5 0
-6 5 -8 11 -4 8 4 7 9 -2 16 -10 7 -8 8 9 5 12 -3 20 -1 16 4 -6 10 -21 11
-41 2z"/>
<path d="M3020 2060 c8 -5 20 -10 25 -10 6 0 3 5 -5 10 -8 5 -19 10 -25 10 -5
0 -3 -5 5 -10z"/>
<path d="M3941 2048 c0 -15 -8 -31 -17 -36 -10 -6 -12 -12 -6 -16 16 -10 34
21 29 51 l-4 28 -2 -27z"/>
<path d="M2486 2047 c3 -10 9 -15 12 -12 3 3 0 11 -7 18 -10 9 -11 8 -5 -6z"/>
<path d="M2654 2025 c5 -36 -9 -46 -31 -24 -15 15 -46 3 -38 -13 4 -7 -1 -4
-9 6 -9 11 -16 15 -16 9 0 -19 26 -32 53 -27 17 3 27 0 27 -7 0 -7 3 -9 7 -6
3 4 13 1 22 -5 13 -10 14 -10 4 1 -7 9 -8 23 -3 43 9 31 4 58 -11 58 -5 0 -7
-16 -5 -35z"/>
<path d="M2530 2040 c35 -11 50 -11 50 -2 0 5 -17 9 -37 9 -33 1 -35 0 -13 -7z"/>
<path d="M2606 2035 c-18 -14 -18 -14 1 -12 11 0 20 7 20 14 0 7 -1 13 -1 13
-1 0 -9 -7 -20 -15z"/>
<path d="M2695 2030 c-3 -5 1 -10 10 -10 9 0 13 5 10 10 -3 6 -8 10 -10 10 -2
0 -7 -4 -10 -10z"/>
<path d="M3013 2025 c0 -8 4 -15 9 -15 4 0 8 7 8 15 0 8 -4 15 -8 15 -5 0 -9
-7 -9 -15z"/>
<path d="M3800 2029 c0 -5 5 -7 10 -4 6 3 10 8 10 11 0 2 -4 4 -10 4 -5 0 -10
-5 -10 -11z"/>
<path d="M2363 2015 c0 -8 4 -12 9 -9 5 3 6 10 3 15 -9 13 -12 11 -12 -6z"/>
<path d="M2735 2019 c-4 -6 -4 -13 -1 -16 3 -4 6 -1 6 5 0 6 8 13 18 15 15 4
15 5 0 6 -9 0 -20 -4 -23 -10z"/>
<path d="M2815 2019 c-4 -5 -14 -8 -22 -5 -8 4 -11 1 -8 -5 4 -6 14 -8 23 -4
8 3 19 0 24 -7 6 -10 8 -9 8 4 0 21 -16 32 -25 17z"/>
<path d="M2895 2009 c-5 -15 -10 -17 -20 -9 -11 9 -12 7 -8 -9 3 -12 8 -19 12
-16 4 2 6 -10 4 -28 l-2 -32 11 28 c11 26 38 38 38 17 0 -5 5 -10 10 -10 6 0
10 7 10 16 0 8 -4 12 -10 9 -5 -3 -10 -2 -10 4 0 6 -7 8 -15 5 -9 -4 -15 0
-15 10 0 9 5 16 10 16 6 0 10 5 10 10 0 18 -19 10 -25 -11z"/>
<path d="M2686 1993 c-3 -3 -2 -19 1 -36 5 -23 3 -28 -7 -22 -8 5 -11 4 -7 -3
4 -5 17 -8 30 -5 21 6 21 6 -3 -15 -14 -12 -19 -21 -12 -22 6 0 12 4 12 9 0 4
11 6 26 3 19 -3 24 -10 22 -26 -3 -22 -48 -37 -48 -16 0 6 -4 9 -10 5 -5 -3
-7 -12 -4 -20 5 -13 33 -13 54 0 6 3 10 -1 10 -9 0 -10 -9 -16 -26 -16 -14 0
-23 -4 -19 -10 3 -5 -1 -10 -9 -10 -9 0 -16 -4 -16 -10 0 -5 -9 -10 -20 -10
-18 0 -19 -3 -9 -22 8 -14 14 -18 17 -10 2 6 13 12 25 12 12 0 18 -4 12 -8
-14 -10 -17 -32 -5 -32 6 0 10 7 10 15 0 8 5 15 11 15 5 0 8 4 5 9 -3 4 5 18
18 30 21 20 24 20 37 5 12 -15 12 -16 -7 -10 -19 6 -23 1 -32 -35 -6 -23 -7
-50 -3 -61 7 -19 7 -19 30 2 13 11 19 20 13 20 -6 0 -10 9 -9 20 1 11 7 20 14
20 7 0 13 5 13 10 0 6 8 10 18 10 10 0 23 5 30 12 9 9 12 8 12 -5 0 -9 5 -17
10 -17 6 0 10 4 10 8 0 11 69 2 76 -9 3 -5 14 -9 25 -9 12 0 17 4 14 11 -4 6
-13 8 -21 5 -8 -3 -14 1 -14 10 0 9 -5 12 -12 8 -7 -4 -8 -3 -4 4 4 7 3 12 -3
12 -5 0 -9 9 -8 20 1 11 7 20 14 20 7 0 10 -7 6 -17 -5 -12 -3 -14 7 -8 10 6
12 4 7 -8 -4 -11 1 -21 15 -28 18 -10 20 -9 14 6 -9 24 3 39 20 24 9 -7 14 -8
14 -1 0 6 2 17 5 25 7 16 -26 20 -36 5 -4 -6 -15 -4 -28 3 -18 12 -25 11 -48
-3 -15 -9 -29 -22 -32 -29 -2 -6 1 -9 7 -6 5 4 15 0 22 -8 9 -10 9 -15 1 -15
-6 0 -11 4 -11 9 0 5 -11 8 -25 5 -30 -5 -29 -6 -8 37 9 18 18 28 21 21 2 -7
8 -12 13 -12 4 0 6 7 3 15 -4 9 0 15 9 15 13 0 13 4 4 25 l-12 25 -12 -27
c-13 -33 -53 -41 -53 -12 0 11 -4 19 -9 19 -5 0 -8 -12 -5 -26 5 -26 -10 -54
-28 -54 -6 0 -8 11 -6 24 3 14 1 31 -3 38 -7 10 -9 10 -9 1 0 -7 -6 -13 -12
-13 -7 1 -3 9 10 20 13 11 21 24 17 30 -3 5 1 13 9 16 9 3 13 10 10 15 -8 14
-66 -31 -60 -47 4 -11 2 -11 -14 -1 -11 6 -20 14 -20 17 0 3 18 15 40 28 22
13 38 27 35 33 -4 5 -11 7 -16 4 -5 -4 -9 -1 -9 4 0 6 -5 11 -11 11 -5 0 -7
-4 -4 -10 3 -5 1 -10 -5 -10 -6 0 -9 -4 -5 -9 3 -5 1 -12 -4 -16 -6 -3 -8 3
-6 15 2 11 -2 20 -8 21 -7 0 -20 2 -29 4 -9 2 -19 1 -22 -2z m42 -30 c-2 -9
-8 -18 -15 -20 -7 -3 -9 3 -6 16 6 25 26 28 21 4z m122 -153 c0 -5 -4 -10 -10
-10 -5 0 -10 5 -10 10 0 6 5 10 10 10 6 0 10 -4 10 -10z m-90 -100 c0 -5 -4
-10 -10 -10 -5 0 -10 5 -10 10 0 6 5 10 10 10 6 0 10 -4 10 -10z"/>
<path d="M3873 1985 c-7 -8 -13 -19 -13 -25 0 -6 -6 -8 -12 -4 -7 4 -4 -2 7
-13 11 -11 24 -18 29 -15 4 2 3 8 -4 12 -15 9 -13 20 7 43 9 9 12 17 7 17 -5
-1 -15 -7 -21 -15z"/>
<path d="M2370 1975 c-8 -9 -8 -15 -2 -15 12 0 26 19 19 26 -2 2 -10 -2 -17
-11z"/>
<path d="M2830 1971 c0 -6 4 -13 10 -16 6 -3 7 1 4 9 -7 18 -14 21 -14 7z"/>
<path d="M2970 1971 c0 -6 4 -13 10 -16 6 -3 7 1 4 9 -7 18 -14 21 -14 7z"/>
<path d="M2536 1961 c-3 -5 5 -8 18 -7 13 0 22 4 19 9 -6 10 -31 9 -37 -2z"/>
<path d="M3014 1945 c-12 -24 -8 -71 7 -80 4 -3 4 8 -1 24 -6 20 -4 33 6 42 7
8 10 19 6 26 -5 8 -11 4 -18 -12z"/>
<path d="M2449 1943 c-13 -16 -12 -17 4 -4 9 7 17 15 17 17 0 8 -8 3 -21 -13z"/>
<path d="M2341 1927 c-13 -21 -12 -21 5 -5 10 10 16 20 13 22 -3 3 -11 -5 -18
-17z"/>
<path d="M2965 1915 c4 -17 13 -36 21 -44 10 -11 10 -8 0 22 -16 47 -30 61
-21 22z"/>
<path d="M2290 1909 c-22 -18 -22 -19 -3 -10 12 6 25 16 28 21 9 15 3 12 -25
-11z"/>
<path d="M2627 1904 c23 -17 33 -17 33 0 0 8 -10 14 -25 14 -23 0 -24 -2 -8
-14z"/>
<path d="M2360 1894 c0 -6 -7 -14 -15 -18 -8 -3 -15 -15 -15 -26 0 -17 2 -19
14 -8 8 7 10 16 5 19 -5 3 2 11 16 19 28 15 33 27 10 27 -8 0 -15 -6 -15 -13z"/>
<path d="M2400 1890 c-6 -11 -7 -20 -2 -20 6 0 12 9 15 20 3 11 3 20 1 20 -2
0 -8 -9 -14 -20z"/>
<path d="M2310 1890 c0 -5 5 -10 10 -10 6 0 10 5 10 10 0 6 -4 10 -10 10 -5 0
-10 -4 -10 -10z"/>
<path d="M2243 1830 c-45 -21 -41 -32 5 -13 43 18 46 20 35 25 -4 2 -23 -3
-40 -12z"/>
<path d="M2379 1838 c-1 -7 -1 -16 0 -20 0 -4 -6 -5 -14 -2 -8 4 -15 1 -15 -5
0 -14 13 -14 45 1 29 13 32 23 9 32 -22 8 -24 8 -25 -6z"/>
<path d="M2600 1838 c0 -4 4 -8 9 -8 6 0 12 4 15 8 3 5 -1 9 -9 9 -8 0 -15 -4
-15 -9z"/>
<path d="M2646 1824 c-9 -23 -7 -34 5 -34 6 0 9 6 6 14 -3 7 0 19 6 25 8 8 8
11 0 11 -6 0 -14 -7 -17 -16z"/>
<path d="M2591 1804 c0 -11 3 -14 6 -6 3 7 2 16 -1 19 -3 4 -6 -2 -5 -13z"/>
<path d="M3055 1800 c3 -5 8 -10 11 -10 2 0 4 5 4 10 0 6 -5 10 -11 10 -5 0
-7 -4 -4 -10z"/>
<path d="M2241 1791 c-8 -6 -9 -11 -3 -15 6 -3 14 -1 17 5 9 14 2 20 -14 10z"/>
<path d="M2488 1793 c7 -3 16 -2 19 1 4 3 -2 6 -13 5 -11 0 -14 -3 -6 -6z"/>
<path d="M2284 1775 c-10 -8 -14 -15 -8 -15 6 0 17 7 24 15 16 19 9 19 -16 0z"/>
<path d="M2394 1770 c0 -10 4 -16 8 -14 22 14 4 -17 -24 -40 -46 -38 -68 -35
-26 4 12 11 16 20 10 20 -7 0 -28 -16 -48 -35 -46 -46 -81 -68 -94 -60 -16 10
-6 30 14 30 20 0 51 61 36 70 -5 3 -18 0 -29 -7 -15 -9 -17 -15 -9 -25 6 -8 8
-17 4 -20 -4 -4 -11 -1 -15 6 -11 17 -32 5 -24 -14 3 -8 0 -15 -7 -15 -6 0
-10 -6 -7 -12 2 -7 9 -13 15 -13 7 0 12 -3 12 -7 0 -5 0 -13 0 -19 0 -8 -6 -7
-17 2 -16 13 -17 12 -5 -3 8 -9 11 -21 9 -26 -3 -4 -1 -14 5 -22 8 -12 9 -12
4 3 -3 10 0 17 8 17 8 0 22 3 30 6 12 5 15 2 10 -10 -3 -9 -12 -16 -20 -16
-27 0 -14 -15 14 -16 27 -1 28 1 26 45 -2 49 9 71 34 71 12 0 10 -6 -9 -27
-17 -19 -19 -25 -7 -20 13 4 16 2 11 -11 -3 -9 -10 -22 -14 -28 -12 -15 0 -24
33 -24 19 0 27 -4 22 -11 -3 -6 -17 -9 -30 -6 -30 5 -30 0 -1 -23 12 -10 19
-22 15 -26 -4 -4 -14 -1 -22 6 -21 16 -72 -20 -53 -39 8 -8 7 -11 -6 -11 -21
0 -22 -16 -1 -24 21 -8 21 -8 27 14 3 11 13 20 24 20 29 1 58 29 58 57 0 14 6
28 13 30 6 3 12 0 12 -6 0 -6 -5 -11 -11 -11 -8 0 -8 -5 1 -15 7 -8 17 -12 22
-9 6 4 8 -2 6 -12 -2 -10 -14 -24 -28 -31 l-25 -13 25 -1 c14 0 19 -3 13 -6
-7 -2 -13 -12 -13 -20 0 -11 -6 -8 -20 8 l-19 24 -1 -23 c0 -13 4 -21 9 -17 5
3 12 1 16 -4 3 -6 13 -7 22 -4 13 5 15 2 10 -11 -4 -11 -3 -15 4 -11 6 4 8 13
5 21 -3 8 -1 14 5 14 6 0 6 7 -1 19 -8 16 -5 23 18 40 22 16 23 20 9 21 -10 0
-15 5 -12 10 4 6 11 8 16 4 6 -3 22 -3 36 1 24 6 25 7 7 20 -11 8 -14 15 -7
15 6 0 19 3 29 7 14 5 16 2 10 -20 -3 -15 -2 -27 3 -27 14 0 19 22 10 47 -6
17 -5 21 6 17 8 -3 11 -13 8 -22 -4 -12 0 -10 13 5 27 31 58 37 79 16 17 -16
17 -16 10 6 -5 16 -4 21 4 17 6 -4 11 -2 11 4 0 8 -9 10 -25 6 -14 -4 -25 -2
-25 4 0 5 -9 10 -21 10 -12 0 -19 5 -16 13 2 6 14 11 25 9 12 -2 22 2 22 7 0
6 -9 11 -20 11 -23 0 -24 1 -8 35 7 15 19 25 33 25 12 0 25 3 28 6 7 7 -30 44
-44 44 -17 0 -18 -19 -2 -30 17 -11 17 -11 1 -6 -12 3 -22 -2 -29 -17 -21 -38
-55 -64 -43 -32 4 8 1 15 -6 15 -6 0 -8 6 -5 13 4 6 0 4 -8 -5 -22 -27 -37
-21 -37 15 -1 30 -1 31 -15 13 -8 -11 -15 -14 -15 -7 0 7 -4 9 -10 6 -16 -10
-12 7 8 28 9 11 11 17 5 13 -7 -4 -21 -3 -31 3 -14 7 -18 6 -18 -9z m-131 -45
c-3 -9 -8 -14 -10 -11 -3 3 -2 9 2 15 9 16 15 13 8 -4z m194 -34 c0 -11 -6
-17 -14 -14 -18 7 -17 33 1 33 8 0 14 -8 13 -19z m-67 -59 c0 -11 3 -13 8 -6
14 22 50 26 62 7 9 -16 10 -15 4 6 -4 17 -2 22 7 19 8 -3 15 -10 15 -16 3 -25
5 -27 15 -12 8 12 10 12 7 1 -2 -8 -26 -26 -52 -40 -46 -25 -48 -25 -61 -7 -8
10 -19 15 -26 10 -7 -4 -10 -3 -5 4 3 5 0 13 -6 16 -9 3 -8 8 5 16 9 6 14 16
11 22 -4 7 -2 8 4 4 7 -4 12 -15 12 -24z m-54 -47 c-8 -8 -18 -15 -22 -15 -3
0 -1 7 6 15 7 8 17 15 22 15 5 0 3 -7 -6 -15z m224 11 c0 -3 -4 -8 -10 -11 -5
-3 -10 -1 -10 4 0 6 5 11 10 11 6 0 10 -2 10 -4z m-180 -20 c0 -3 -4 -8 -10
-11 -5 -3 -10 -1 -10 4 0 6 5 11 10 11 6 0 10 -2 10 -4z m74 -31 c15 -23 15
-25 1 -25 -9 0 -13 5 -9 11 4 8 0 9 -15 4 -15 -4 -21 -2 -21 8 0 9 6 18 13 20
6 3 13 6 13 6 1 1 9 -10 18 -24z"/>
<path d="M2430 1611 c-8 -6 -18 -7 -24 -4 -5 3 -6 1 -2 -5 5 -9 13 -9 27 -2
10 6 19 13 19 15 0 7 -3 6 -20 -4z"/>
<path d="M2192 1760 c-7 -11 -8 -20 -2 -20 5 0 14 9 20 20 6 11 7 20 3 20 -5
0 -14 -9 -21 -20z"/>
<path d="M2345 1770 c-3 -5 -4 -10 -1 -10 2 0 12 -3 20 -6 12 -5 15 -2 10 10
-7 18 -20 21 -29 6z"/>
<path d="M2522 1743 c9 -10 13 -24 11 -30 -5 -13 9 -18 20 -7 8 8 -22 54 -36
54 -5 0 -3 -8 5 -17z"/>
<path d="M2160 1731 c0 -11 4 -22 9 -25 4 -3 6 6 3 19 -5 30 -12 33 -12 6z"/>
<path d="M2295 1730 c-3 -5 -1 -10 4 -10 6 0 11 5 11 10 0 6 -2 10 -4 10 -3 0
-8 -4 -11 -10z"/>
<path d="M2878 1733 c7 -3 16 -2 19 1 4 3 -2 6 -13 5 -11 0 -14 -3 -6 -6z"/>
<path d="M2635 1699 c-4 -6 -13 -8 -21 -5 -20 8 -17 -2 5 -13 14 -8 23 -6 36
9 16 18 16 20 2 20 -9 0 -19 -5 -22 -11z"/>
<path d="M2685 1690 c-3 -6 1 -7 9 -4 18 7 21 14 7 14 -6 0 -13 -4 -16 -10z"/>
<path d="M2847 1689 c7 -7 15 -10 18 -7 3 3 -2 9 -12 12 -14 6 -15 5 -6 -5z"/>
<path d="M3490 1659 c0 -5 5 -7 10 -4 6 3 10 8 10 11 0 2 -4 4 -10 4 -5 0 -10
-5 -10 -11z"/>
<path d="M2676 1633 c-6 -14 -5 -15 5 -6 7 7 10 15 7 18 -3 3 -9 -2 -12 -12z"/>
<path d="M2660 1569 c0 -5 5 -7 10 -4 6 3 10 8 10 11 0 2 -4 4 -10 4 -5 0 -10
-5 -10 -11z"/>
<path d="M2563 1549 c-20 -13 -30 -26 -26 -35 6 -17 13 -17 37 1 10 7 15 18
12 24 -4 5 2 14 11 20 10 6 14 10 8 10 -5 0 -24 -10 -42 -20z m17 -13 c0 -3
-4 -8 -10 -11 -5 -3 -10 -1 -10 4 0 6 5 11 10 11 6 0 10 -2 10 -4z"/>
<path d="M2265 1529 c-4 -6 -13 -8 -20 -5 -17 6 -35 -13 -35 -38 0 -19 0 -19
18 1 9 11 25 22 35 26 9 3 17 11 17 17 0 13 -7 13 -15 -1z"/>
<path d="M2492 1485 c-20 -14 -29 -26 -23 -30 6 -3 14 1 17 10 4 10 13 13 24
10 20 -6 37 12 24 25 -5 4 -24 -2 -42 -15z"/>
<path d="M2292 1430 c-8 -13 -8 -20 -2 -20 6 0 13 7 17 15 9 24 -1 27 -15 5z"/>
<path d="M2441 1420 c-5 -16 -15 -30 -20 -30 -6 0 -11 -10 -11 -22 0 -17 3
-19 9 -9 5 7 14 10 20 7 6 -4 11 -2 11 3 0 6 -6 11 -12 11 -9 1 -8 5 2 13 9 7
16 22 17 35 2 30 -3 28 -16 -8z"/>
<path d="M2293 1402 c-13 -2 -23 -10 -23 -17 0 -18 38 -15 45 4 7 17 6 18 -22
13z"/>
<path d="M2278 1353 c7 -3 16 -2 19 1 4 3 -2 6 -13 5 -11 0 -14 -3 -6 -6z"/>
<path d="M2655 1339 c-4 -6 -5 -12 -2 -15 2 -3 7 2 10 11 7 17 1 20 -8 4z"/>
<path d="M2285 1320 c-3 -5 -1 -10 4 -10 6 0 11 5 11 10 0 6 -2 10 -4 10 -3 0
-8 -4 -11 -10z"/>
<path d="M2309 1263 c-13 -16 -12 -17 4 -4 9 7 17 15 17 17 0 8 -8 3 -21 -13z"/>
<path d="M2490 1270 c-13 -8 -12 -10 3 -10 9 0 17 5 17 10 0 12 -1 12 -20 0z"/>
<path d="M2587 1251 c-27 -29 -36 -61 -17 -61 6 0 10 10 10 21 0 18 2 19 15 9
13 -11 14 -10 9 5 -5 13 -4 16 4 11 8 -5 11 1 10 18 -1 15 -3 26 -3 26 0 0
-12 -13 -28 -29z"/>
<path d="M2520 1250 c-9 -6 -10 -10 -3 -10 6 0 15 5 18 10 8 12 4 12 -15 0z"/>
<path d="M2735 1250 c3 -5 8 -10 11 -10 2 0 4 5 4 10 0 6 -5 10 -11 10 -5 0
-7 -4 -4 -10z"/>
<path d="M2435 1219 c-4 -6 -5 -12 -2 -15 2 -3 7 2 10 11 7 17 1 20 -8 4z"/>
<path d="M2285 1210 c3 -5 8 -10 11 -10 2 0 4 5 4 10 0 6 -5 10 -11 10 -5 0
-7 -4 -4 -10z"/>
<path d="M2500 1185 c0 -8 2 -15 4 -15 2 0 6 7 10 15 3 8 1 15 -4 15 -6 0 -10
-7 -10 -15z"/>
<path d="M2730 1186 c0 -2 7 -7 16 -10 8 -3 12 -2 9 4 -6 10 -25 14 -25 6z"/>
<path d="M2320 1180 c-1 -3 -2 -21 -4 -40 -2 -19 -6 -46 -10 -60 -6 -20 -5
-22 4 -10 10 12 11 11 7 -7 -3 -13 -2 -25 2 -28 4 -2 13 -29 20 -59 7 -31 17
-58 22 -62 5 -3 7 -14 4 -25 -4 -11 2 -30 13 -47 10 -15 27 -49 37 -75 10 -26
22 -50 28 -54 6 -4 7 -1 2 8 -8 12 -6 12 8 0 19 -15 23 -26 6 -15 -18 11 0
-77 22 -108 10 -15 19 -31 19 -35 0 -4 10 -19 21 -33 11 -14 18 -19 14 -11 -4
7 -1 18 6 23 11 8 10 9 -3 5 -9 -3 -19 1 -22 9 -9 24 -8 26 14 14 22 -12 27
-1 8 18 -15 15 -3 16 23 1 19 -10 19 -9 9 10 -13 25 -23 26 -44 5 -9 -8 -16
-12 -16 -7 0 5 5 14 11 20 6 6 11 28 11 48 0 26 3 33 9 24 5 -8 6 -21 3 -31
-2 -9 1 -20 7 -24 9 -5 10 -2 6 10 -5 12 0 19 16 26 l22 9 -22 0 c-21 1 -28
15 -24 43 0 4 -9 10 -20 13 -20 7 -20 7 -2 21 11 8 13 13 6 14 -18 0 -16 20 1
20 8 0 16 7 19 15 5 11 1 12 -18 5 -15 -6 -25 -6 -25 -1 0 5 6 11 13 14 8 3 7
10 -7 26 -11 11 -16 24 -13 28 4 3 7 0 7 -8 0 -11 2 -11 10 1 13 20 13 33 0
25 -7 -4 -9 3 -6 19 3 14 0 26 -6 26 -5 0 -8 7 -4 15 3 8 1 15 -4 15 -6 0 -10
7 -10 15 0 12 -4 13 -19 6 -16 -9 -18 -8 -14 9 3 11 -2 27 -11 35 -9 9 -16 12
-16 5 0 -6 -4 -9 -10 -5 -5 3 -7 12 -3 20 3 10 -1 15 -12 15 -10 0 -13 -5 -9
-12 5 -7 3 -8 -6 -3 -10 6 -10 10 3 20 14 10 13 13 -9 30 -14 10 -22 25 -20
32 3 8 -2 17 -12 20 -9 4 -20 11 -24 17 -4 6 -8 9 -8 6z m163 -245 c-3 -9 -8
-14 -10 -11 -3 3 -2 9 2 15 9 16 15 13 8 -4z m17 -165 c0 -5 -4 -10 -10 -10
-5 0 -10 5 -10 10 0 6 5 10 10 10 6 0 10 -4 10 -10z m-15 -130 c-3 -5 -1 -10
6 -10 7 0 10 -3 6 -6 -9 -9 -28 6 -22 17 4 5 8 9 11 9 3 0 2 -4 -1 -10z"/>
<path d="M2420 1165 c0 -8 2 -15 4 -15 2 0 6 7 10 15 3 8 1 15 -4 15 -6 0 -10
-7 -10 -15z"/>
<path d="M2806 1155 c4 -8 7 -15 9 -15 1 0 8 7 15 15 10 13 9 15 -8 15 -15 0
-20 -5 -16 -15z"/>
<path d="M2629 1138 c-4 -15 -6 -38 -3 -38 2 0 8 9 14 20 7 14 7 20 0 20 -5 0
-10 -1 -11 -2z"/>
<path d="M2807 1113 c-3 -4 6 -16 19 -26 29 -21 31 -14 5 14 -10 11 -21 17
-24 12z"/>
<path d="M2485 1090 c-3 -6 1 -7 9 -4 18 7 21 14 7 14 -6 0 -13 -4 -16 -10z"/>
<path d="M2680 1075 c-18 -21 -5 -31 15 -12 8 9 11 18 6 21 -5 3 -14 -1 -21
-9z"/>
<path d="M2867 1084 c-4 -4 -7 -14 -7 -23 0 -11 3 -12 11 -4 6 6 10 16 7 23
-2 6 -7 8 -11 4z"/>
<path d="M4981 1053 c-1 -16 5 -23 17 -23 10 0 13 3 6 8 -6 4 -14 14 -17 22
-4 10 -6 8 -6 -7z"/>
<path d="M2600 1044 c0 -8 5 -12 10 -9 6 4 8 11 5 16 -9 14 -15 11 -15 -7z"/>
<path d="M2832 1032 c2 -24 6 -28 23 -23 18 5 18 6 2 9 -11 2 -16 9 -13 18 3
7 1 16 -5 19 -5 4 -8 -6 -7 -23z"/>
<path d="M2743 1033 c-7 -2 -13 -11 -13 -19 0 -9 -5 -12 -12 -8 -6 4 -8 3 -5
-3 4 -6 19 -8 34 -5 20 4 23 7 10 10 -14 3 -16 7 -6 18 12 15 11 15 -8 7z"/>
<path d="M4961 960 c0 -15 -6 -31 -12 -37 -13 -13 -19 -103 -6 -103 4 0 5 -5
2 -10 -4 -6 -11 -8 -16 -5 -5 4 -9 -9 -10 -27 -1 -18 -2 -44 -4 -58 -11 -104
-17 -135 -27 -141 -7 -4 -6 -8 3 -11 11 -4 11 -10 2 -29 -6 -13 -12 -18 -12
-11 -1 6 -7 12 -13 12 -7 -1 -3 -9 10 -20 13 -11 18 -21 12 -25 -6 -3 -8 -11
-5 -16 4 -5 0 -11 -7 -14 -8 -3 -14 -15 -15 -25 -1 -11 2 -18 8 -15 5 4 9 1 9
-5 0 -6 -7 -13 -15 -16 -21 -8 -8 -25 13 -17 14 5 13 2 -3 -11 -11 -10 -14
-15 -8 -11 9 4 11 1 7 -9 -3 -9 -10 -16 -15 -16 -5 0 -9 -5 -9 -11 0 -5 4 -7
10 -4 6 3 7 -1 4 -9 -4 -9 -1 -16 6 -16 10 0 10 -3 0 -15 -6 -8 -9 -19 -6 -24
10 -16 -11 -22 -24 -6 -7 8 -16 12 -21 9 -15 -9 -10 -24 7 -24 8 0 22 -7 31
-15 8 -8 19 -13 24 -10 5 4 9 1 9 -4 0 -6 -7 -11 -16 -11 -12 0 -14 -4 -7 -13
6 -6 13 -25 15 -40 5 -26 4 -27 -13 -11 -10 9 -16 21 -12 27 3 6 1 7 -5 3 -7
-4 -12 -2 -12 5 0 7 -3 10 -6 7 -3 -4 1 -17 10 -30 23 -35 27 -76 10 -93 -14
-13 -13 -15 5 -15 20 0 26 13 23 52 -1 10 3 17 9 15 11 -2 20 19 74 175 21 63
30 100 23 104 -6 4 -5 10 3 15 12 7 11 9 -1 9 -8 1 -4 6 9 11 23 9 24 10 5 31
-11 12 -14 18 -8 15 16 -9 28 23 14 37 -5 5 -10 18 -10 28 0 10 -6 18 -14 18
-18 0 -27 25 -14 38 8 8 7 16 -3 29 -13 16 -12 16 16 -1 17 -10 24 -13 18 -5
-7 7 -13 26 -13 42 0 25 -3 28 -22 22 -18 -5 -20 -4 -8 4 8 6 11 11 7 11 -4 0
-2 6 5 14 7 8 17 11 22 8 5 -3 6 0 2 7 -4 6 0 23 9 38 9 14 13 23 7 19 -16
-10 -37 23 -24 36 7 7 12 16 12 22 0 5 -6 1 -14 -10 -8 -10 -18 -16 -22 -12
-4 4 -1 15 7 24 11 13 11 18 2 21 -22 8 -15 69 10 87 14 11 16 15 5 12 -10 -3
-18 2 -21 12 -3 11 -5 7 -6 -8z m29 -211 c0 -6 -7 -8 -16 -5 -9 3 -20 6 -25 6
-4 0 -6 7 -3 15 5 11 11 12 25 4 10 -5 19 -15 19 -20z"/>
<path d="M2531 961 c-8 -5 -9 -11 -3 -15 5 -3 12 1 16 9 6 17 6 18 -13 6z"/>
<path d="M4985 920 c-8 -13 5 -13 25 0 13 8 13 10 -2 10 -9 0 -20 -4 -23 -10z"/>
<path d="M2598 867 c-10 -6 -8 -7 4 -4 9 3 18 1 21 -6 2 -7 6 -5 9 4 7 18 -14
21 -34 6z"/>
<path d="M2570 826 c0 -2 8 -10 18 -17 15 -13 16 -12 3 4 -13 16 -21 21 -21
13z"/>
<path d="M3356 817 c3 -10 9 -15 12 -12 3 3 0 11 -7 18 -10 9 -11 8 -5 -6z"/>
<path d="M2560 760 c-9 -6 -10 -10 -3 -10 6 0 15 5 18 10 8 12 4 12 -15 0z"/>
<path d="M2592 498 c-7 -7 -12 -20 -12 -30 0 -10 -4 -18 -10 -18 -5 0 -10 -5
-10 -11 0 -5 4 -8 9 -5 5 4 11 1 13 -6 3 -9 6 -9 12 0 4 7 3 12 -2 12 -11 0
-4 39 11 58 12 15 5 16 -11 0z"/>
<path d="M4835 280 c4 -6 11 -8 16 -5 14 9 11 15 -7 15 -8 0 -12 -5 -9 -10z"/>
<path d="M4754 198 c-4 -7 -4 -10 1 -6 4 4 15 2 24 -5 14 -11 14 -10 2 6 -16
20 -18 21 -27 5z"/>
<path d="M4741 147 c2 -1 13 -9 24 -17 19 -14 19 -14 6 3 -7 9 -18 17 -24 17
-6 0 -8 -1 -6 -3z"/>
<path d="M4813 129 c-2 -23 3 -25 10 -4 4 8 3 16 -1 19 -4 3 -9 -4 -9 -15z"/>
<path d="M4812 83 c13 -17 25 -17 25 0 0 7 -8 13 -18 13 -13 0 -15 -3 -7 -13z"/>
<path d="M4785 61 c-2 -5 4 -11 15 -14 11 -3 20 -2 20 3 0 12 -28 21 -35 11z"/>
<path d="M4713 23 c9 -2 14 -9 11 -15 -4 -7 -2 -8 5 -4 15 10 4 26 -17 25 -15
-1 -15 -2 1 -6z"/>
<path d="M4826 15 c-3 -8 -1 -15 4 -15 6 0 10 7 10 15 0 19 -6 19 -14 0z"/>
<path d="M4856 21 c-4 -7 -5 -15 -2 -18 9 -9 19 4 14 18 -4 11 -6 11 -12 0z"/>
</g>
</svg>
